<svg xmlns="http://www.w3.org/2000/svg" xmlns:xlink="http://www.w3.org/1999/xlink" width="500" zoomAndPan="magnify" viewBox="0 0 375 374.999991" height="500" preserveAspectRatio="xMidYMid meet" version="1.2"><defs><filter x="0%" y="0%" width="100%" filterUnits="objectBoundingBox" id="696a194b59" height="100%"><feColorMatrix values="0 0 0 0 1 0 0 0 0 1 0 0 0 0 1 0 0 0 1 0" type="matrix" in="SourceGraphic"/></filter><clipPath id="cf3746372c"><path d="M 44.949219 89.644531 L 224.832031 89.644531 L 224.832031 269.527344 L 44.949219 269.527344 Z M 44.949219 89.644531 "/></clipPath><clipPath id="42060f7550"><path d="M 134.890625 89.644531 C 85.21875 89.644531 44.949219 129.910156 44.949219 179.585938 C 44.949219 229.257812 85.21875 269.527344 134.890625 269.527344 C 184.566406 269.527344 224.832031 229.257812 224.832031 179.585938 C 224.832031 129.910156 184.566406 89.644531 134.890625 89.644531 Z M 134.890625 89.644531 "/></clipPath><clipPath id="6c055eb3aa"><rect x="0" width="375" y="0" height="375"/></clipPath></defs><g id="efe8a5faee"><g mask="url(#2493177bfb)" transform="matrix(1,0,0,1,0,0)"><g clip-path="url(#6c055eb3aa)"><g clip-rule="nonzero" clip-path="url(#cf3746372c)"><g clip-rule="nonzero" clip-path="url(#42060f7550)"><path style="fill:none;stroke-width:100;stroke-linecap:butt;stroke-linejoin:miter;stroke:#d9d9d9;stroke-opacity:1;stroke-miterlimit:4;" d="M 119.919625 0.000894316 C 53.690454 0.000894316 -0.0022576 53.688398 -0.0022576 119.922777 C -0.0022576 186.151948 53.690454 239.84466 119.919625 239.84466 C 186.154005 239.84466 239.841508 186.151948 239.841508 119.922777 C 239.841508 53.688398 186.154005 0.000894316 119.919625 0.000894316 Z M 119.919625 0.000894316 " transform="matrix(0.75,0,0,0.75,44.950912,89.643861)"/></g></g></g><mask id="2493177bfb"><g filter="url(#696a194b59)"><rect x="0" width="375" y="0" height="374.999991" style="fill:#000000;fill-opacity:0.75;stroke:none;"/></g></mask></g><g style="fill:#2979ff;fill-opacity:1;"><g transform="translate(81.232697, 207.873678)"><path style="stroke:none" d="M 37.78125 0 L 23.671875 0 L 23.671875 -22.875 L 0.4375 -60.53125 L 16.78125 -60.53125 L 30.796875 -35.390625 L 44.640625 -60.53125 L 61.109375 -60.53125 L 37.75 -22.96875 Z M 37.78125 0 "/></g></g><g style="fill:#2979ff;fill-opacity:1;"><g transform="translate(126.632768, 207.873678)"><path style="stroke:none" d="M 23.859375 1.515625 C 20.773438 1.515625 17.929688 0.878906 15.328125 -0.390625 C 12.734375 -1.671875 10.484375 -3.4375 8.578125 -5.6875 C 6.679688 -7.945312 5.210938 -10.5625 4.171875 -13.53125 C 3.140625 -16.5 2.625 -19.675781 2.625 -23.0625 C 2.625 -26.40625 3.148438 -29.5625 4.203125 -32.53125 C 5.253906 -35.5 6.726562 -38.109375 8.625 -40.359375 C 10.53125 -42.617188 12.773438 -44.382812 15.359375 -45.65625 C 17.941406 -46.9375 20.742188 -47.578125 23.765625 -47.578125 C 27.179688 -47.578125 30.203125 -46.9375 32.828125 -45.65625 C 35.453125 -44.382812 37.460938 -42.5625 38.859375 -40.1875 L 38.859375 -46.109375 L 51.859375 -46.109375 L 51.859375 0 L 38.8125 0 L 38.8125 -5.828125 C 37.414062 -3.484375 35.410156 -1.671875 32.796875 -0.390625 C 30.191406 0.878906 27.210938 1.515625 23.859375 1.515625 Z M 27.203125 -11.125 C 29.304688 -11.125 31.1875 -11.648438 32.84375 -12.703125 C 34.507812 -13.753906 35.832031 -15.175781 36.8125 -16.96875 C 37.789062 -18.769531 38.28125 -20.800781 38.28125 -23.0625 C 38.28125 -25.28125 37.789062 -27.285156 36.8125 -29.078125 C 35.832031 -30.878906 34.503906 -32.3125 32.828125 -33.375 C 31.148438 -34.445312 29.285156 -34.984375 27.234375 -34.984375 C 25.222656 -34.984375 23.378906 -34.507812 21.703125 -33.5625 C 20.023438 -32.613281 18.6875 -31.25 17.6875 -29.46875 C 16.695312 -27.6875 16.203125 -25.550781 16.203125 -23.0625 C 16.203125 -20.445312 16.710938 -18.253906 17.734375 -16.484375 C 18.753906 -14.722656 20.101562 -13.390625 21.78125 -12.484375 C 23.457031 -11.578125 25.265625 -11.125 27.203125 -11.125 Z M 27.203125 -11.125 "/></g></g><g style="fill:#2979ff;fill-opacity:1;"><g transform="translate(176.128141, 207.873678)"><path style="stroke:none" d="M 43.53125 0 L 2.53125 0 L 2.53125 -8.28125 L 23.765625 -34.625 L 3.65625 -34.625 L 3.65625 -46.109375 L 42.46875 -46.109375 L 42.46875 -37.703125 L 21.453125 -11.484375 L 43.53125 -11.484375 Z M 43.53125 0 "/></g></g><g style="fill:#000000;fill-opacity:1;"><g transform="translate(214.006125, 207.873678)"><path style="stroke:none" d="M 12.109375 -51.546875 C 10.410156 -51.546875 8.960938 -51.878906 7.765625 -52.546875 C 6.566406 -53.210938 5.644531 -54.101562 5 -55.21875 C 4.363281 -56.332031 4.046875 -57.570312 4.046875 -58.9375 C 4.046875 -60.300781 4.359375 -61.535156 4.984375 -62.640625 C 5.609375 -63.753906 6.523438 -64.648438 7.734375 -65.328125 C 8.953125 -66.015625 10.425781 -66.359375 12.15625 -66.359375 C 13.9375 -66.359375 15.429688 -66.015625 16.640625 -65.328125 C 17.859375 -64.648438 18.78125 -63.753906 19.40625 -62.640625 C 20.03125 -61.535156 20.34375 -60.300781 20.34375 -58.9375 C 20.34375 -56.851562 19.632812 -55.097656 18.21875 -53.671875 C 16.8125 -52.253906 14.773438 -51.546875 12.109375 -51.546875 Z M 19 0 L 5.296875 0 L 5.296875 -46.109375 L 19 -46.109375 Z M 19 0 "/></g></g><g style="fill:#000000;fill-opacity:1;"><g transform="translate(230.696314, 207.873678)"><path style="stroke:none" d="M 27.109375 1.46875 C 23.515625 1.46875 20.21875 0.832031 17.21875 -0.4375 C 14.226562 -1.71875 11.640625 -3.476562 9.453125 -5.71875 C 7.273438 -7.957031 5.59375 -10.5625 4.40625 -13.53125 C 3.21875 -16.5 2.625 -19.675781 2.625 -23.0625 C 2.625 -26.40625 3.21875 -29.5625 4.40625 -32.53125 C 5.59375 -35.5 7.273438 -38.109375 9.453125 -40.359375 C 11.640625 -42.617188 14.226562 -44.382812 17.21875 -45.65625 C 20.21875 -46.9375 23.53125 -47.578125 27.15625 -47.578125 C 30.800781 -47.578125 34.132812 -46.9375 37.15625 -45.65625 C 40.1875 -44.382812 42.789062 -42.617188 44.96875 -40.359375 C 47.15625 -38.109375 48.847656 -35.503906 50.046875 -32.546875 C 51.253906 -29.597656 51.859375 -26.4375 51.859375 -23.0625 C 51.859375 -19.675781 51.253906 -16.5 50.046875 -13.53125 C 48.847656 -10.5625 47.148438 -7.945312 44.953125 -5.6875 C 42.753906 -3.4375 40.140625 -1.679688 37.109375 -0.421875 C 34.085938 0.835938 30.753906 1.46875 27.109375 1.46875 Z M 27.234375 -11.171875 C 29.398438 -11.171875 31.304688 -11.675781 32.953125 -12.6875 C 34.609375 -13.695312 35.910156 -15.09375 36.859375 -16.875 C 37.804688 -18.65625 38.28125 -20.71875 38.28125 -23.0625 C 38.28125 -25.40625 37.804688 -27.460938 36.859375 -29.234375 C 35.910156 -31.015625 34.609375 -32.410156 32.953125 -33.421875 C 31.304688 -34.429688 29.398438 -34.9375 27.234375 -34.9375 C 25.097656 -34.9375 23.195312 -34.429688 21.53125 -33.421875 C 19.875 -32.410156 18.570312 -31.015625 17.625 -29.234375 C 16.675781 -27.460938 16.203125 -25.40625 16.203125 -23.0625 C 16.203125 -20.71875 16.675781 -18.65625 17.625 -16.875 C 18.570312 -15.09375 19.875 -13.695312 21.53125 -12.6875 C 23.195312 -11.675781 25.097656 -11.171875 27.234375 -11.171875 Z M 27.234375 -11.171875 "/></g></g><g style="fill:#000000;fill-opacity:1;"><g transform="translate(277.52098, 207.873678)"><path style="stroke:none" d="M 19 0 L 5.296875 0 L 5.296875 -46.109375 L 18.375 -46.109375 L 18.375 -40.546875 C 19.269531 -41.941406 20.441406 -43.164062 21.890625 -44.21875 C 23.347656 -45.269531 25.007812 -46.09375 26.875 -46.6875 C 28.75 -47.28125 30.738281 -47.578125 32.84375 -47.578125 C 37.03125 -47.578125 40.488281 -46.664062 43.21875 -44.84375 C 45.945312 -43.019531 47.972656 -40.398438 49.296875 -36.984375 C 50.617188 -33.578125 51.28125 -29.5 51.28125 -24.75 L 51.28125 0 L 37.5625 0 L 37.5625 -24.4375 C 37.5625 -26.988281 37.195312 -29.039062 36.46875 -30.59375 C 35.75 -32.15625 34.75 -33.285156 33.46875 -33.984375 C 32.195312 -34.679688 30.695312 -35.03125 28.96875 -35.03125 C 27.25 -35.03125 25.625 -34.59375 24.09375 -33.71875 C 22.570312 -32.84375 21.34375 -31.503906 20.40625 -29.703125 C 19.46875 -27.910156 19 -25.632812 19 -22.875 Z M 19 0 "/></g></g><path style="fill:none;stroke-width:4;stroke-linecap:butt;stroke-linejoin:miter;stroke:#000000;stroke-opacity:1;stroke-miterlimit:4;" d="M 0.000283021 2.000846 L 108.244308 2.000846 " transform="matrix(0.748526,0,0,0.748526,239.066194,147.256222)"/><path style="fill-rule:nonzero;fill:#000000;fill-opacity:1;stroke-width:4;stroke-linecap:round;stroke-linejoin:round;stroke:#000000;stroke-opacity:1;stroke-miterlimit:4;" d="M 109.246278 -4.000534 L 117.246378 2.000846 L 109.246278 8.002226 Z M 109.246278 -4.000534 " transform="matrix(0.748526,0,0,0.748526,239.066194,147.256222)"/></g></svg>