<svg xmlns="http://www.w3.org/2000/svg" xmlns:xlink="http://www.w3.org/1999/xlink" width="500" zoomAndPan="magnify" viewBox="0 0 375 374.999991" height="500" preserveAspectRatio="xMidYMid meet" version="1.2"><defs><filter x="0%" y="0%" width="100%" filterUnits="objectBoundingBox" id="08e42fe40e" height="100%"><feColorMatrix values="0 0 0 0 1 0 0 0 0 1 0 0 0 0 1 0 0 0 1 0" type="matrix" in="SourceGraphic"/></filter><clipPath id="c29a440b9e"><path d="M 44.949219 89.644531 L 224.832031 89.644531 L 224.832031 269.527344 L 44.949219 269.527344 Z M 44.949219 89.644531 "/></clipPath><clipPath id="d064cd58ed"><path d="M 134.890625 89.644531 C 85.21875 89.644531 44.949219 129.910156 44.949219 179.585938 C 44.949219 229.257812 85.21875 269.527344 134.890625 269.527344 C 184.566406 269.527344 224.832031 229.257812 224.832031 179.585938 C 224.832031 129.910156 184.566406 89.644531 134.890625 89.644531 Z M 134.890625 89.644531 "/></clipPath><clipPath id="0b96de388d"><rect x="0" width="375" y="0" height="375"/></clipPath></defs><g id="93d9bdbcbd"><g mask="url(#4a448e33ae)" transform="matrix(1,0,0,1,0,0)"><g clip-path="url(#0b96de388d)"><g clip-rule="nonzero" clip-path="url(#c29a440b9e)"><g clip-rule="nonzero" clip-path="url(#d064cd58ed)"><path style="fill:none;stroke-width:100;stroke-linecap:butt;stroke-linejoin:miter;stroke:#d9d9d9;stroke-opacity:1;stroke-miterlimit:4;" d="M 119.919625 0.000894316 C 53.690454 0.000894316 -0.0022576 53.688398 -0.0022576 119.922777 C -0.0022576 186.151948 53.690454 239.84466 119.919625 239.84466 C 186.154005 239.84466 239.841508 186.151948 239.841508 119.922777 C 239.841508 53.688398 186.154005 0.000894316 119.919625 0.000894316 Z M 119.919625 0.000894316 " transform="matrix(0.75,0,0,0.75,44.950912,89.643861)"/></g></g></g><mask id="4a448e33ae"><g filter="url(#08e42fe40e)"><rect x="0" width="375" y="0" height="374.999991" style="fill:#000000;fill-opacity:0.75;stroke:none;"/></g></mask></g><g style="fill:#2979ff;fill-opacity:1;"><g transform="translate(81.232697, 207.873678)"><path style="stroke:none" d="M 37.78125 0 L 23.671875 0 L 23.671875 -22.875 L 0.4375 -60.53125 L 16.78125 -60.53125 L 30.796875 -35.390625 L 44.640625 -60.53125 L 61.109375 -60.53125 L 37.75 -22.96875 Z M 37.78125 0 "/></g></g><g style="fill:#2979ff;fill-opacity:1;"><g transform="translate(126.632768, 207.873678)"><path style="stroke:none" d="M 23.859375 1.515625 C 20.773438 1.515625 17.929688 0.878906 15.328125 -0.390625 C 12.734375 -1.671875 10.484375 -3.4375 8.578125 -5.6875 C 6.679688 -7.945312 5.210938 -10.5625 4.171875 -13.53125 C 3.140625 -16.5 2.625 -19.675781 2.625 -23.0625 C 2.625 -26.40625 3.148438 -29.5625 4.203125 -32.53125 C 5.253906 -35.5 6.726562 -38.109375 8.625 -40.359375 C 10.53125 -42.617188 12.773438 -44.382812 15.359375 -45.65625 C 17.941406 -46.9375 20.742188 -47.578125 23.765625 -47.578125 C 27.179688 -47.578125 30.203125 -46.9375 32.828125 -45.65625 C 35.453125 -44.382812 37.460938 -42.5625 38.859375 -40.1875 L 38.859375 -46.109375 L 51.859375 -46.109375 L 51.859375 0 L 38.8125 0 L 38.8125 -5.828125 C 37.414062 -3.484375 35.410156 -1.671875 32.796875 -0.390625 C 30.191406 0.878906 27.210938 1.515625 23.859375 1.515625 Z M 27.203125 -11.125 C 29.304688 -11.125 31.1875 -11.648438 32.84375 -12.703125 C 34.507812 -13.753906 35.832031 -15.175781 36.8125 -16.96875 C 37.789062 -18.769531 38.28125 -20.800781 38.28125 -23.0625 C 38.28125 -25.28125 37.789062 -27.285156 36.8125 -29.078125 C 35.832031 -30.878906 34.503906 -32.3125 32.828125 -33.375 C 31.148438 -34.445312 29.285156 -34.984375 27.234375 -34.984375 C 25.222656 -34.984375 23.378906 -34.507812 21.703125 -33.5625 C 20.023438 -32.613281 18.6875 -31.25 17.6875 -29.46875 C 16.695312 -27.6875 16.203125 -25.550781 16.203125 -23.0625 C 16.203125 -20.445312 16.710938 -18.253906 17.734375 -16.484375 C 18.753906 -14.722656 20.101562 -13.390625 21.78125 -12.484375 C 23.457031 -11.578125 25.265625 -11.125 27.203125 -11.125 Z M 27.203125 -11.125 "/></g></g><g style="fill:#2979ff;fill-opacity:1;"><g transform="translate(176.128141, 207.873678)"><path style="stroke:none" d="M 43.53125 0 L 2.53125 0 L 2.53125 -8.28125 L 23.765625 -34.625 L 3.65625 -34.625 L 3.65625 -46.109375 L 42.46875 -46.109375 L 42.46875 -37.703125 L 21.453125 -11.484375 L 43.53125 -11.484375 Z M 43.53125 0 "/></g></g><g style="fill:#ffffff;fill-opacity:1;"><g transform="translate(214.006125, 207.873678)"><path style="stroke:none" d="M 12.109375 -51.546875 C 10.410156 -51.546875 8.960938 -51.878906 7.765625 -52.546875 C 6.566406 -53.210938 5.644531 -54.101562 5 -55.21875 C 4.363281 -56.332031 4.046875 -57.570312 4.046875 -58.9375 C 4.046875 -60.300781 4.359375 -61.535156 4.984375 -62.640625 C 5.609375 -63.753906 6.523438 -64.648438 7.734375 -65.328125 C 8.953125 -66.015625 10.425781 -66.359375 12.15625 -66.359375 C 13.9375 -66.359375 15.429688 -66.015625 16.640625 -65.328125 C 17.859375 -64.648438 18.78125 -63.753906 19.40625 -62.640625 C 20.03125 -61.535156 20.34375 -60.300781 20.34375 -58.9375 C 20.34375 -56.851562 19.632812 -55.097656 18.21875 -53.671875 C 16.8125 -52.253906 14.773438 -51.546875 12.109375 -51.546875 Z M 19 0 L 5.296875 0 L 5.296875 -46.109375 L 19 -46.109375 Z M 19 0 "/></g></g><g style="fill:#ffffff;fill-opacity:1;"><g transform="translate(230.696314, 207.873678)"><path style="stroke:none" d="M 27.109375 1.46875 C 23.515625 1.46875 20.21875 0.832031 17.21875 -0.4375 C 14.226562 -1.71875 11.640625 -3.476562 9.453125 -5.71875 C 7.273438 -7.957031 5.59375 -10.5625 4.40625 -13.53125 C 3.21875 -16.5 2.625 -19.675781 2.625 -23.0625 C 2.625 -26.40625 3.21875 -29.5625 4.40625 -32.53125 C 5.59375 -35.5 7.273438 -38.109375 9.453125 -40.359375 C 11.640625 -42.617188 14.226562 -44.382812 17.21875 -45.65625 C 20.21875 -46.9375 23.53125 -47.578125 27.15625 -47.578125 C 30.800781 -47.578125 34.132812 -46.9375 37.15625 -45.65625 C 40.1875 -44.382812 42.789062 -42.617188 44.96875 -40.359375 C 47.15625 -38.109375 48.847656 -35.503906 50.046875 -32.546875 C 51.253906 -29.597656 51.859375 -26.4375 51.859375 -23.0625 C 51.859375 -19.675781 51.253906 -16.5 50.046875 -13.53125 C 48.847656 -10.5625 47.148438 -7.945312 44.953125 -5.6875 C 42.753906 -3.4375 40.140625 -1.679688 37.109375 -0.421875 C 34.085938 0.835938 30.753906 1.46875 27.109375 1.46875 Z M 27.234375 -11.171875 C 29.398438 -11.171875 31.304688 -11.675781 32.953125 -12.6875 C 34.609375 -13.695312 35.910156 -15.09375 36.859375 -16.875 C 37.804688 -18.65625 38.28125 -20.71875 38.28125 -23.0625 C 38.28125 -25.40625 37.804688 -27.460938 36.859375 -29.234375 C 35.910156 -31.015625 34.609375 -32.410156 32.953125 -33.421875 C 31.304688 -34.429688 29.398438 -34.9375 27.234375 -34.9375 C 25.097656 -34.9375 23.195312 -34.429688 21.53125 -33.421875 C 19.875 -32.410156 18.570312 -31.015625 17.625 -29.234375 C 16.675781 -27.460938 16.203125 -25.40625 16.203125 -23.0625 C 16.203125 -20.71875 16.675781 -18.65625 17.625 -16.875 C 18.570312 -15.09375 19.875 -13.695312 21.53125 -12.6875 C 23.195312 -11.675781 25.097656 -11.171875 27.234375 -11.171875 Z M 27.234375 -11.171875 "/></g></g><g style="fill:#ffffff;fill-opacity:1;"><g transform="translate(277.52098, 207.873678)"><path style="stroke:none" d="M 19 0 L 5.296875 0 L 5.296875 -46.109375 L 18.375 -46.109375 L 18.375 -40.546875 C 19.269531 -41.941406 20.441406 -43.164062 21.890625 -44.21875 C 23.347656 -45.269531 25.007812 -46.09375 26.875 -46.6875 C 28.75 -47.28125 30.738281 -47.578125 32.84375 -47.578125 C 37.03125 -47.578125 40.488281 -46.664062 43.21875 -44.84375 C 45.945312 -43.019531 47.972656 -40.398438 49.296875 -36.984375 C 50.617188 -33.578125 51.28125 -29.5 51.28125 -24.75 L 51.28125 0 L 37.5625 0 L 37.5625 -24.4375 C 37.5625 -26.988281 37.195312 -29.039062 36.46875 -30.59375 C 35.75 -32.15625 34.75 -33.285156 33.46875 -33.984375 C 32.195312 -34.679688 30.695312 -35.03125 28.96875 -35.03125 C 27.25 -35.03125 25.625 -34.59375 24.09375 -33.71875 C 22.570312 -32.84375 21.34375 -31.503906 20.40625 -29.703125 C 19.46875 -27.910156 19 -25.632812 19 -22.875 Z M 19 0 "/></g></g><g style="fill:#ffffff;fill-opacity:1;"><g transform="translate(177.947323, 235.808305)"><path style="stroke:none" d="M 5.59375 -12.390625 C 6.976562 -12.390625 8.035156 -12.039062 8.765625 -11.34375 C 9.503906 -10.65625 9.945312 -9.734375 10.09375 -8.578125 L 7.609375 -8.578125 C 7.535156 -9.210938 7.320312 -9.703125 6.96875 -10.046875 C 6.613281 -10.398438 6.128906 -10.578125 5.515625 -10.578125 C 5.003906 -10.578125 4.585938 -10.453125 4.265625 -10.203125 C 3.953125 -9.960938 3.796875 -9.609375 3.796875 -9.140625 C 3.796875 -8.617188 3.988281 -8.210938 4.375 -7.921875 C 4.757812 -7.628906 5.429688 -7.375 6.390625 -7.15625 C 7.710938 -6.84375 8.6875 -6.375 9.3125 -5.75 C 9.945312 -5.132812 10.265625 -4.332031 10.265625 -3.34375 C 10.265625 -2.238281 9.828125 -1.363281 8.953125 -0.71875 C 8.085938 -0.0703125 7.03125 0.25 5.78125 0.25 C 4.300781 0.25 3.117188 -0.0703125 2.234375 -0.71875 C 1.359375 -1.375 0.859375 -2.332031 0.734375 -3.59375 L 3.21875 -3.59375 C 3.351562 -2.945312 3.648438 -2.445312 4.109375 -2.09375 C 4.566406 -1.738281 5.109375 -1.5625 5.734375 -1.5625 C 6.296875 -1.5625 6.769531 -1.703125 7.15625 -1.984375 C 7.539062 -2.265625 7.734375 -2.632812 7.734375 -3.09375 C 7.734375 -3.613281 7.546875 -4.03125 7.171875 -4.34375 C 6.804688 -4.664062 6.179688 -4.929688 5.296875 -5.140625 C 3.929688 -5.472656 2.914062 -5.910156 2.25 -6.453125 C 1.582031 -6.992188 1.25 -7.789062 1.25 -8.84375 C 1.25 -9.914062 1.671875 -10.773438 2.515625 -11.421875 C 3.359375 -12.066406 4.382812 -12.390625 5.59375 -12.390625 Z M 5.59375 -12.390625 "/></g></g><g style="fill:#ffffff;fill-opacity:1;"><g transform="translate(187.997375, 235.808305)"><path style="stroke:none" d="M 1.75 -8.25 C 2.613281 -9.15625 3.804688 -9.609375 5.328125 -9.609375 C 6.859375 -9.609375 8.050781 -9.15625 8.90625 -8.25 C 9.769531 -7.34375 10.203125 -6.15625 10.203125 -4.6875 C 10.203125 -3.226562 9.769531 -2.039062 8.90625 -1.125 C 8.050781 -0.207031 6.859375 0.25 5.328125 0.25 C 3.804688 0.25 2.613281 -0.207031 1.75 -1.125 C 0.894531 -2.039062 0.46875 -3.226562 0.46875 -4.6875 C 0.46875 -6.15625 0.894531 -7.34375 1.75 -8.25 Z M 3.625 -2.3125 C 4.039062 -1.75 4.609375 -1.46875 5.328125 -1.46875 C 6.054688 -1.46875 6.628906 -1.75 7.046875 -2.3125 C 7.460938 -2.882812 7.671875 -3.675781 7.671875 -4.6875 C 7.671875 -5.695312 7.460938 -6.484375 7.046875 -7.046875 C 6.628906 -7.617188 6.054688 -7.90625 5.328125 -7.90625 C 4.609375 -7.90625 4.039062 -7.617188 3.625 -7.046875 C 3.207031 -6.484375 3 -5.695312 3 -4.6875 C 3 -3.675781 3.207031 -2.882812 3.625 -2.3125 Z M 3.625 -2.3125 "/></g></g><g style="fill:#ffffff;fill-opacity:1;"><g transform="translate(198.012214, 235.808305)"><path style="stroke:none" d="M 3.828125 -10.5625 C 3.796875 -10.394531 3.78125 -10.125 3.78125 -9.75 L 3.78125 -9.296875 L 5.703125 -9.296875 L 5.703125 -7.6875 L 3.78125 -7.6875 L 3.78125 0 L 1.359375 0 L 1.359375 -7.6875 L 0.359375 -7.6875 L 0.359375 -9.296875 L 1.359375 -9.296875 L 1.359375 -9.6875 C 1.359375 -10.1875 1.367188 -10.546875 1.390625 -10.765625 C 1.546875 -12.441406 2.679688 -13.28125 4.796875 -13.28125 C 5.140625 -13.28125 5.492188 -13.238281 5.859375 -13.15625 L 5.859375 -11.46875 C 5.285156 -11.570312 4.8125 -11.539062 4.4375 -11.375 C 4.070312 -11.21875 3.867188 -10.945312 3.828125 -10.5625 Z M 3.828125 -10.5625 "/></g></g><g style="fill:#ffffff;fill-opacity:1;"><g transform="translate(203.309844, 235.808305)"><path style="stroke:none" d="M 4.015625 -7.6875 L 4.015625 -3.359375 C 4.015625 -2.972656 4.019531 -2.695312 4.03125 -2.53125 C 4.0625 -2.070312 4.195312 -1.773438 4.4375 -1.640625 C 4.675781 -1.503906 5.128906 -1.460938 5.796875 -1.515625 L 5.796875 0.078125 C 5.285156 0.148438 4.75 0.1875 4.1875 0.1875 C 3.300781 0.1875 2.664062 0.0390625 2.28125 -0.25 C 1.894531 -0.550781 1.675781 -1.039062 1.625 -1.71875 C 1.59375 -2 1.578125 -2.453125 1.578125 -3.078125 L 1.578125 -7.6875 L 0.21875 -7.6875 L 0.21875 -9.296875 L 1.578125 -9.296875 L 1.578125 -11.609375 L 4.015625 -11.609375 L 4.015625 -9.296875 L 5.953125 -9.296875 L 5.953125 -7.6875 Z M 4.015625 -7.6875 "/></g></g><g style="fill:#ffffff;fill-opacity:1;"><g transform="translate(209.012308, 235.808305)"><path style="stroke:none" d="M 14.65625 -9.375 L 11.671875 0 L 8.921875 0 L 7.34375 -7.125 L 5.734375 0 L 2.96875 0 L 0 -9.375 L 2.71875 -9.375 L 4.359375 -2.03125 L 5.90625 -9.328125 L 8.828125 -9.328125 L 10.40625 -2.046875 L 12.046875 -9.375 Z M 14.65625 -9.375 "/></g></g><g style="fill:#ffffff;fill-opacity:1;"><g transform="translate(222.987501, 235.808305)"><path style="stroke:none" d="M 6.546875 0 L 6.375 -1.375 L 5.921875 -0.375 C 5.304688 0.0390625 4.53125 0.25 3.59375 0.25 C 2.738281 0.25 2.019531 0.0078125 1.4375 -0.46875 C 0.863281 -0.957031 0.578125 -1.628906 0.578125 -2.484375 C 0.578125 -3.515625 1.015625 -4.304688 1.890625 -4.859375 C 2.765625 -5.421875 4.046875 -5.703125 5.734375 -5.703125 L 6.34375 -5.703125 L 6.34375 -5.90625 C 6.34375 -6.28125 6.328125 -6.570312 6.296875 -6.78125 C 6.222656 -7.53125 5.742188 -7.90625 4.859375 -7.90625 C 3.890625 -7.90625 3.367188 -7.378906 3.296875 -6.328125 L 0.9375 -6.296875 C 0.96875 -7.335938 1.351562 -8.148438 2.09375 -8.734375 C 2.84375 -9.316406 3.796875 -9.609375 4.953125 -9.609375 C 7.285156 -9.609375 8.535156 -8.6875 8.703125 -6.84375 C 8.734375 -6.40625 8.75 -5.925781 8.75 -5.40625 L 8.75 -2.375 C 8.75 -1.65625 8.804688 -0.863281 8.921875 0 Z M 4.53125 -1.46875 C 5.039062 -1.46875 5.46875 -1.640625 5.8125 -1.984375 C 6.164062 -2.335938 6.34375 -2.828125 6.34375 -3.453125 L 6.34375 -4.203125 C 4.175781 -4.359375 3.09375 -3.847656 3.09375 -2.671875 C 3.09375 -1.867188 3.570312 -1.46875 4.53125 -1.46875 Z M 4.53125 -1.46875 "/></g></g><g style="fill:#ffffff;fill-opacity:1;"><g transform="translate(232.227872, 235.808305)"><path style="stroke:none" d="M 5.875 -9.59375 C 6.144531 -9.59375 6.375 -9.570312 6.5625 -9.53125 L 6.5625 -7.578125 C 5.53125 -7.640625 4.769531 -7.414062 4.28125 -6.90625 C 3.789062 -6.394531 3.546875 -5.523438 3.546875 -4.296875 L 3.546875 0 L 1.109375 0 L 1.109375 -9.375 L 3.546875 -9.375 L 3.546875 -7.65625 L 4.28125 -8.96875 C 4.738281 -9.382812 5.269531 -9.59375 5.875 -9.59375 Z M 5.875 -9.59375 "/></g></g><g style="fill:#ffffff;fill-opacity:1;"><g transform="translate(238.264767, 235.808305)"><path style="stroke:none" d="M 9.609375 -4.875 C 9.609375 -4.53125 9.597656 -4.253906 9.578125 -4.046875 L 2.921875 -4.046875 C 3.066406 -2.328125 3.789062 -1.46875 5.09375 -1.46875 C 5.613281 -1.46875 6.046875 -1.609375 6.390625 -1.890625 C 6.742188 -2.171875 6.960938 -2.554688 7.046875 -3.046875 L 9.46875 -3.046875 C 9.238281 -1.972656 8.726562 -1.15625 7.9375 -0.59375 C 7.144531 -0.03125 6.175781 0.25 5.03125 0.25 C 3.6875 0.25 2.585938 -0.164062 1.734375 -1 C 0.890625 -1.84375 0.46875 -3.0625 0.46875 -4.65625 C 0.46875 -6.101562 0.90625 -7.289062 1.78125 -8.21875 C 2.65625 -9.144531 3.804688 -9.609375 5.234375 -9.609375 C 6.609375 -9.609375 7.679688 -9.15625 8.453125 -8.25 C 9.222656 -7.351562 9.609375 -6.226562 9.609375 -4.875 Z M 5.125 -7.90625 C 3.914062 -7.90625 3.207031 -7.148438 3 -5.640625 L 7.109375 -5.640625 C 6.953125 -7.148438 6.289062 -7.90625 5.125 -7.90625 Z M 5.125 -7.90625 "/></g></g><g style="fill:#ffffff;fill-opacity:1;"><g transform="translate(247.786766, 235.808305)"><path style="stroke:none" d=""/></g></g><g style="fill:#ffffff;fill-opacity:1;"><g transform="translate(250.54977, 235.808305)"><path style="stroke:none" d="M 6.78125 -12.390625 C 8.363281 -12.390625 9.597656 -12.003906 10.484375 -11.234375 C 11.378906 -10.472656 11.894531 -9.460938 12.03125 -8.203125 L 12.046875 -8.03125 L 9.609375 -8.03125 L 9.578125 -8.203125 C 9.265625 -9.785156 8.320312 -10.578125 6.75 -10.578125 C 5.757812 -10.578125 4.960938 -10.179688 4.359375 -9.390625 C 3.765625 -8.597656 3.46875 -7.515625 3.46875 -6.140625 C 3.46875 -4.671875 3.765625 -3.539062 4.359375 -2.75 C 4.960938 -1.957031 5.742188 -1.5625 6.703125 -1.5625 C 7.484375 -1.5625 8.109375 -1.78125 8.578125 -2.21875 C 9.046875 -2.65625 9.363281 -3.257812 9.53125 -4.03125 L 9.5625 -4.203125 L 11.96875 -4.203125 L 11.953125 -4.03125 C 11.828125 -2.71875 11.285156 -1.675781 10.328125 -0.90625 C 9.378906 -0.132812 8.140625 0.25 6.609375 0.25 C 4.890625 0.25 3.503906 -0.3125 2.453125 -1.4375 C 1.410156 -2.570312 0.890625 -4.09375 0.890625 -6 C 0.890625 -7.945312 1.441406 -9.5 2.546875 -10.65625 C 3.648438 -11.8125 5.0625 -12.390625 6.78125 -12.390625 Z M 6.78125 -12.390625 "/></g></g><g style="fill:#ffffff;fill-opacity:1;"><g transform="translate(262.53599, 235.808305)"><path style="stroke:none" d="M 1.75 -8.25 C 2.613281 -9.15625 3.804688 -9.609375 5.328125 -9.609375 C 6.859375 -9.609375 8.050781 -9.15625 8.90625 -8.25 C 9.769531 -7.34375 10.203125 -6.15625 10.203125 -4.6875 C 10.203125 -3.226562 9.769531 -2.039062 8.90625 -1.125 C 8.050781 -0.207031 6.859375 0.25 5.328125 0.25 C 3.804688 0.25 2.613281 -0.207031 1.75 -1.125 C 0.894531 -2.039062 0.46875 -3.226562 0.46875 -4.6875 C 0.46875 -6.15625 0.894531 -7.34375 1.75 -8.25 Z M 3.625 -2.3125 C 4.039062 -1.75 4.609375 -1.46875 5.328125 -1.46875 C 6.054688 -1.46875 6.628906 -1.75 7.046875 -2.3125 C 7.460938 -2.882812 7.671875 -3.675781 7.671875 -4.6875 C 7.671875 -5.695312 7.460938 -6.484375 7.046875 -7.046875 C 6.628906 -7.617188 6.054688 -7.90625 5.328125 -7.90625 C 4.609375 -7.90625 4.039062 -7.617188 3.625 -7.046875 C 3.207031 -6.484375 3 -5.695312 3 -4.6875 C 3 -3.675781 3.207031 -2.882812 3.625 -2.3125 Z M 3.625 -2.3125 "/></g></g><g style="fill:#ffffff;fill-opacity:1;"><g transform="translate(272.550829, 235.808305)"><path style="stroke:none" d="M 15.015625 -7.296875 C 15.078125 -6.890625 15.109375 -6.316406 15.109375 -5.578125 L 15.109375 0 L 12.671875 0 L 12.671875 -4.875 C 12.671875 -5.476562 12.648438 -5.988281 12.609375 -6.40625 C 12.484375 -7.40625 11.957031 -7.90625 11.03125 -7.90625 C 9.882812 -7.90625 9.3125 -6.875 9.3125 -4.8125 L 9.3125 0 L 6.90625 0 L 6.90625 -4.875 C 6.90625 -5.476562 6.878906 -5.988281 6.828125 -6.40625 C 6.703125 -7.40625 6.171875 -7.90625 5.234375 -7.90625 C 4.109375 -7.90625 3.546875 -6.875 3.546875 -4.8125 L 3.546875 0 L 1.109375 0 L 1.109375 -9.375 L 3.546875 -9.375 L 3.546875 -7.9375 L 4.21875 -9.0625 C 4.738281 -9.425781 5.40625 -9.609375 6.21875 -9.609375 C 6.957031 -9.609375 7.566406 -9.445312 8.046875 -9.125 C 8.535156 -8.800781 8.882812 -8.375 9.09375 -7.84375 L 10 -9.0625 C 10.519531 -9.425781 11.191406 -9.609375 12.015625 -9.609375 C 12.867188 -9.609375 13.550781 -9.390625 14.0625 -8.953125 C 14.582031 -8.523438 14.898438 -7.972656 15.015625 -7.296875 Z M 15.015625 -7.296875 "/></g></g><g style="fill:#ffffff;fill-opacity:1;"><g transform="translate(288.022153, 235.808305)"><path style="stroke:none" d="M 6.671875 -9.609375 C 7.960938 -9.609375 8.976562 -9.164062 9.71875 -8.28125 C 10.46875 -7.40625 10.84375 -6.265625 10.84375 -4.859375 C 10.84375 -3.242188 10.414062 -1.988281 9.5625 -1.09375 C 8.707031 -0.195312 7.640625 0.25 6.359375 0.25 C 5.390625 0.25 4.65625 0.0703125 4.15625 -0.28125 L 3.546875 -1.25 L 3.546875 3.453125 L 1.109375 3.453125 L 1.109375 -9.375 L 3.546875 -9.375 L 3.546875 -7.9375 L 4.25 -8.96875 C 4.78125 -9.394531 5.585938 -9.609375 6.671875 -9.609375 Z M 5.875 -1.46875 C 6.601562 -1.46875 7.191406 -1.742188 7.640625 -2.296875 C 8.097656 -2.859375 8.328125 -3.660156 8.328125 -4.703125 C 8.328125 -5.660156 8.113281 -6.429688 7.6875 -7.015625 C 7.257812 -7.609375 6.6875 -7.90625 5.96875 -7.90625 C 5.238281 -7.90625 4.648438 -7.65625 4.203125 -7.15625 C 3.765625 -6.65625 3.546875 -5.867188 3.546875 -4.796875 L 3.546875 -4.34375 C 3.546875 -3.363281 3.769531 -2.640625 4.21875 -2.171875 C 4.675781 -1.703125 5.226562 -1.46875 5.875 -1.46875 Z M 5.875 -1.46875 "/></g></g><g style="fill:#ffffff;fill-opacity:1;"><g transform="translate(298.688251, 235.808305)"><path style="stroke:none" d="M 6.546875 0 L 6.375 -1.375 L 5.921875 -0.375 C 5.304688 0.0390625 4.53125 0.25 3.59375 0.25 C 2.738281 0.25 2.019531 0.0078125 1.4375 -0.46875 C 0.863281 -0.957031 0.578125 -1.628906 0.578125 -2.484375 C 0.578125 -3.515625 1.015625 -4.304688 1.890625 -4.859375 C 2.765625 -5.421875 4.046875 -5.703125 5.734375 -5.703125 L 6.34375 -5.703125 L 6.34375 -5.90625 C 6.34375 -6.28125 6.328125 -6.570312 6.296875 -6.78125 C 6.222656 -7.53125 5.742188 -7.90625 4.859375 -7.90625 C 3.890625 -7.90625 3.367188 -7.378906 3.296875 -6.328125 L 0.9375 -6.296875 C 0.96875 -7.335938 1.351562 -8.148438 2.09375 -8.734375 C 2.84375 -9.316406 3.796875 -9.609375 4.953125 -9.609375 C 7.285156 -9.609375 8.535156 -8.6875 8.703125 -6.84375 C 8.734375 -6.40625 8.75 -5.925781 8.75 -5.40625 L 8.75 -2.375 C 8.75 -1.65625 8.804688 -0.863281 8.921875 0 Z M 4.53125 -1.46875 C 5.039062 -1.46875 5.46875 -1.640625 5.8125 -1.984375 C 6.164062 -2.335938 6.34375 -2.828125 6.34375 -3.453125 L 6.34375 -4.203125 C 4.175781 -4.359375 3.09375 -3.847656 3.09375 -2.671875 C 3.09375 -1.867188 3.570312 -1.46875 4.53125 -1.46875 Z M 4.53125 -1.46875 "/></g></g><g style="fill:#ffffff;fill-opacity:1;"><g transform="translate(307.928622, 235.808305)"><path style="stroke:none" d="M 9.84375 -6.984375 C 9.894531 -6.566406 9.921875 -6 9.921875 -5.28125 L 9.921875 0 L 7.484375 0 L 7.484375 -4.953125 C 7.484375 -5.503906 7.472656 -5.9375 7.453125 -6.25 C 7.367188 -7.351562 6.769531 -7.90625 5.65625 -7.90625 C 5.019531 -7.90625 4.507812 -7.609375 4.125 -7.015625 C 3.738281 -6.421875 3.546875 -5.507812 3.546875 -4.28125 L 3.546875 0 L 1.109375 0 L 1.109375 -9.375 L 3.546875 -9.375 L 3.546875 -7.859375 L 4.265625 -8.96875 C 4.867188 -9.394531 5.617188 -9.609375 6.515625 -9.609375 C 7.503906 -9.609375 8.28125 -9.378906 8.84375 -8.921875 C 9.414062 -8.460938 9.75 -7.816406 9.84375 -6.984375 Z M 9.84375 -6.984375 "/></g></g><g style="fill:#ffffff;fill-opacity:1;"><g transform="translate(318.207488, 235.808305)"><path style="stroke:none" d="M 9.984375 -9.375 L 6.21875 0.359375 C 5.71875 1.609375 5.179688 2.476562 4.609375 2.96875 C 4.035156 3.457031 3.269531 3.703125 2.3125 3.703125 C 1.894531 3.703125 1.53125 3.675781 1.21875 3.625 L 1.21875 1.953125 C 1.382812 1.972656 1.625 1.984375 1.9375 1.984375 C 2.769531 1.984375 3.359375 1.566406 3.703125 0.734375 L 3.828125 0.4375 L 0 -9.375 L 2.71875 -9.375 L 5.03125 -1.84375 L 7.328125 -9.375 Z M 9.984375 -9.375 "/></g></g><path style="fill:none;stroke-width:4;stroke-linecap:butt;stroke-linejoin:miter;stroke:#ffffff;stroke-opacity:1;stroke-miterlimit:4;" d="M 0.000283021 2.000926 L 108.244308 2.000926 " transform="matrix(0.748526,0,0,0.748526,239.066194,147.256162)"/><path style="fill-rule:nonzero;fill:#ffffff;fill-opacity:1;stroke-width:4;stroke-linecap:round;stroke-linejoin:round;stroke:#ffffff;stroke-opacity:1;stroke-miterlimit:4;" d="M 109.246278 -4.000454 L 117.246378 2.000926 L 109.246278 8.002306 Z M 109.246278 -4.000454 " transform="matrix(0.748526,0,0,0.748526,239.066194,147.256162)"/></g></svg>