<svg width="331" height="132" viewBox="0 0 331 132" fill="none" xmlns="http://www.w3.org/2000/svg">
<path d="M50.6852 89.1649H31.8727V58.6649L0.893555 8.45654H22.6852L41.3727 41.9774L59.8311 8.45654H81.7894L50.6436 58.5399L50.6852 89.1649Z" fill="#2979FF"/>
<path d="M92.6563 91.1858C88.5417 91.1858 84.75 90.3368 81.2813 88.6441C77.8229 86.9358 74.8229 84.5816 72.2813 81.5816C69.75 78.5712 67.7917 75.0816 66.4063 71.1233C65.0313 67.1649 64.3438 62.9305 64.3438 58.4149C64.3438 53.9566 65.0417 49.7483 66.4479 45.7899C67.849 41.8316 69.8125 38.3524 72.3438 35.3524C74.8854 32.342 77.875 29.9878 81.3229 28.2899C84.7656 26.5816 88.5 25.7274 92.5313 25.7274C97.0833 25.7274 101.115 26.5816 104.615 28.2899C108.115 29.9878 110.792 32.4149 112.656 35.5816V27.6858H129.99V89.1649H112.594V81.3941C110.729 84.5191 108.057 86.9358 104.573 88.6441C101.099 90.3368 97.125 91.1858 92.6563 91.1858ZM97.1146 74.3316C99.9167 74.3316 102.427 73.6337 104.635 72.2274C106.854 70.8264 108.62 68.9305 109.927 66.5399C111.229 64.1389 111.885 61.4305 111.885 58.4149C111.885 55.4566 111.229 52.7847 109.927 50.3941C108.62 47.993 106.849 46.0816 104.615 44.6649C102.375 43.2378 99.8906 42.5191 97.1563 42.5191C94.474 42.5191 92.0156 43.1545 89.7813 44.4149C87.5417 45.6805 85.7604 47.4983 84.4271 49.8733C83.1042 52.2483 82.4479 55.0972 82.4479 58.4149C82.4479 61.9045 83.125 64.8264 84.4896 67.1858C85.849 69.5347 87.6458 71.3108 89.8854 72.5191C92.1198 73.7274 94.5313 74.3316 97.1146 74.3316Z" fill="#2979FF"/>
<path d="M184.879 89.1649H130.213V78.1232L158.525 42.9982H131.713V27.6857H183.463V38.8941L155.442 73.8524H184.879V89.1649Z" fill="#2979FF"/>
<path d="M193.487 20.4357C191.222 20.4357 189.289 19.993 187.696 19.1024C186.097 18.217 184.868 17.0295 184.008 15.5399C183.159 14.0555 182.737 12.4045 182.737 10.5816C182.737 8.76386 183.154 7.11802 183.987 5.64406C184.821 4.15969 186.039 2.96698 187.654 2.06073C189.279 1.14406 191.243 0.68573 193.55 0.68573C195.925 0.68573 197.914 1.14406 199.529 2.06073C201.154 2.96698 202.383 4.15969 203.216 5.64406C204.05 7.11802 204.466 8.76386 204.466 10.5816C204.466 13.3628 203.519 15.7014 201.633 17.6024C199.758 19.493 197.039 20.4357 193.487 20.4357ZM202.675 89.1649H184.404V27.6857H202.675V89.1649Z" fill="white"/>
<path d="M235.741 91.1233C230.949 91.1233 226.553 90.2743 222.553 88.5816C218.564 86.8733 215.116 84.5295 212.199 81.5399C209.293 78.5555 207.053 75.0816 205.47 71.1233C203.887 67.1649 203.095 62.9305 203.095 58.4149C203.095 53.9566 203.887 49.7483 205.47 45.7899C207.053 41.8316 209.293 38.3524 212.199 35.3524C215.116 32.342 218.564 29.9878 222.553 28.2899C226.553 26.5816 230.97 25.7274 235.803 25.7274C240.663 25.7274 245.106 26.5816 249.137 28.2899C253.178 29.9878 256.647 32.342 259.553 35.3524C262.47 38.3524 264.725 41.8264 266.324 45.7691C267.934 49.7014 268.741 53.9149 268.741 58.4149C268.741 62.9305 267.934 67.1649 266.324 71.1233C264.725 75.0816 262.46 78.5712 259.533 81.5816C256.6 84.5816 253.116 86.9253 249.074 88.6024C245.043 90.2795 240.6 91.1233 235.741 91.1233ZM235.908 74.2691C238.793 74.2691 241.335 73.5972 243.533 72.2483C245.741 70.9045 247.475 69.0399 248.741 66.6649C250.001 64.2899 250.637 61.5399 250.637 58.4149C250.637 55.2899 250.001 52.5503 248.741 50.1858C247.475 47.8108 245.741 45.9514 243.533 44.6024C241.335 43.2587 238.793 42.5816 235.908 42.5816C233.059 42.5816 230.522 43.2587 228.303 44.6024C226.095 45.9514 224.356 47.8108 223.095 50.1858C221.829 52.5503 221.199 55.2899 221.199 58.4149C221.199 61.5399 221.829 64.2899 223.095 66.6649C224.356 69.0399 226.095 70.9045 228.303 72.2483C230.522 73.5972 233.059 74.2691 235.908 74.2691Z" fill="white"/>
<path d="M287.361 89.1649H269.09V27.6858H286.528V35.1024C287.721 33.243 289.283 31.6128 291.215 30.2066C293.158 28.8055 295.372 27.7066 297.861 26.9149C300.361 26.1233 303.012 25.7274 305.82 25.7274C311.403 25.7274 316.012 26.9462 319.653 29.3733C323.288 31.8055 325.991 35.3003 327.757 39.8524C329.518 44.3941 330.403 49.8316 330.403 56.1649V89.1649H312.111V56.5816C312.111 53.1805 311.622 50.4462 310.653 48.3733C309.695 46.2899 308.361 44.7847 306.653 43.8524C304.955 42.9253 302.955 42.4566 300.653 42.4566C298.361 42.4566 296.195 43.0399 294.153 44.2066C292.122 45.3733 290.486 47.1597 289.236 49.5608C287.986 51.9514 287.361 54.9878 287.361 58.6649V89.1649Z" fill="white"/>
<path d="M136.721 109.89C138.565 109.89 139.977 110.359 140.951 111.286C141.935 112.203 142.524 113.432 142.721 114.974H139.409C139.31 114.13 139.024 113.474 138.555 113.015C138.081 112.547 137.435 112.307 136.617 112.307C135.935 112.307 135.378 112.474 134.951 112.807C134.534 113.13 134.326 113.599 134.326 114.224C134.326 114.922 134.581 115.463 135.096 115.849C135.607 116.239 136.503 116.578 137.784 116.869C139.544 117.286 140.846 117.911 141.68 118.744C142.524 119.567 142.951 120.635 142.951 121.953C142.951 123.427 142.367 124.593 141.201 125.453C140.044 126.317 138.638 126.744 136.971 126.744C134.998 126.744 133.419 126.317 132.242 125.453C131.076 124.578 130.409 123.302 130.242 121.619H133.555C133.732 122.484 134.128 123.151 134.742 123.619C135.352 124.093 136.076 124.328 136.909 124.328C137.659 124.328 138.289 124.14 138.805 123.765C139.315 123.39 139.576 122.901 139.576 122.286C139.576 121.593 139.326 121.036 138.826 120.619C138.336 120.192 137.503 119.838 136.326 119.557C134.503 119.114 133.149 118.531 132.263 117.807C131.373 117.088 130.93 116.026 130.93 114.619C130.93 113.192 131.492 112.047 132.617 111.182C133.742 110.323 135.107 109.89 136.721 109.89Z" fill="white"/>
<path d="M144.997 115.411C146.148 114.203 147.736 113.599 149.767 113.599C151.809 113.599 153.398 114.203 154.538 115.411C155.689 116.619 156.267 118.203 156.267 120.161C156.267 122.109 155.689 123.692 154.538 124.911C153.398 126.135 151.809 126.744 149.767 126.744C147.736 126.744 146.148 126.135 144.997 124.911C143.856 123.692 143.288 122.109 143.288 120.161C143.288 118.203 143.856 116.619 144.997 115.411ZM147.497 123.328C148.049 124.078 148.809 124.453 149.767 124.453C150.736 124.453 151.502 124.078 152.059 123.328C152.611 122.567 152.892 121.51 152.892 120.161C152.892 118.817 152.611 117.765 152.059 117.015C151.502 116.255 150.736 115.869 149.767 115.869C148.809 115.869 148.049 116.255 147.497 117.015C146.939 117.765 146.663 118.817 146.663 120.161C146.663 121.51 146.939 122.567 147.497 123.328Z" fill="white"/>
<path d="M161.12 112.328C161.079 112.552 161.058 112.911 161.058 113.411V114.015H163.62V116.161H161.058V126.411H157.829V116.161H156.495V114.015H157.829V113.494C157.829 112.828 157.839 112.349 157.87 112.057C158.079 109.823 159.589 108.703 162.412 108.703C162.87 108.703 163.339 108.76 163.829 108.869V111.119C163.063 110.984 162.433 111.026 161.933 111.244C161.443 111.453 161.173 111.817 161.12 112.328Z" fill="white"/>
<path d="M168.434 116.161V121.932C168.434 122.448 168.439 122.817 168.455 123.036C168.496 123.651 168.674 124.046 168.996 124.224C169.314 124.406 169.918 124.463 170.809 124.39V126.515C170.127 126.609 169.413 126.661 168.663 126.661C167.481 126.661 166.632 126.463 166.121 126.078C165.606 125.677 165.314 125.026 165.246 124.119C165.205 123.744 165.184 123.14 165.184 122.307V116.161H163.371V114.015H165.184V110.932H168.434V114.015H171.017V116.161H168.434Z" fill="white"/>
<path d="M190.225 113.911L186.246 126.411H182.579L180.475 116.911L178.329 126.411H174.641L170.683 113.911H174.308L176.496 123.703L178.558 113.974H182.454L184.558 123.682L186.746 113.911H190.225Z" fill="white"/>
<path d="M198.046 126.411L197.817 124.578L197.213 125.911C196.39 126.463 195.358 126.744 194.108 126.744C192.968 126.744 192.009 126.421 191.233 125.786C190.468 125.135 190.088 124.239 190.088 123.099C190.088 121.724 190.671 120.671 191.838 119.932C193.004 119.182 194.713 118.807 196.963 118.807H197.775V118.536C197.775 118.036 197.754 117.651 197.713 117.369C197.614 116.369 196.973 115.869 195.796 115.869C194.504 115.869 193.806 116.573 193.713 117.974L190.567 118.015C190.608 116.63 191.119 115.546 192.108 114.765C193.108 113.989 194.379 113.599 195.921 113.599C199.03 113.599 200.697 114.828 200.921 117.286C200.963 117.869 200.983 118.51 200.983 119.203V123.244C200.983 124.203 201.056 125.26 201.213 126.411H198.046ZM195.358 124.453C196.035 124.453 196.608 124.224 197.067 123.765C197.535 123.296 197.775 122.64 197.775 121.807V120.807C194.884 120.599 193.442 121.281 193.442 122.849C193.442 123.921 194.077 124.453 195.358 124.453Z" fill="white"/>
<path d="M209.47 113.619C209.83 113.619 210.137 113.651 210.387 113.703V116.307C209.012 116.224 207.997 116.526 207.345 117.203C206.689 117.885 206.366 119.046 206.366 120.682V126.411H203.116V113.911H206.366V116.203L207.345 114.453C207.955 113.901 208.663 113.619 209.47 113.619Z" fill="white"/>
<path d="M222.499 119.911C222.499 120.369 222.483 120.739 222.457 121.015H213.582C213.775 123.307 214.738 124.453 216.478 124.453C217.171 124.453 217.749 124.265 218.207 123.89C218.676 123.515 218.968 123.005 219.082 122.349H222.311C222.004 123.781 221.322 124.869 220.27 125.619C219.212 126.369 217.921 126.744 216.395 126.744C214.603 126.744 213.134 126.192 211.999 125.078C210.874 123.953 210.311 122.328 210.311 120.203C210.311 118.276 210.895 116.692 212.061 115.453C213.228 114.218 214.759 113.599 216.666 113.599C218.499 113.599 219.926 114.203 220.957 115.411C221.983 116.609 222.499 118.109 222.499 119.911ZM216.52 115.869C214.905 115.869 213.962 116.88 213.686 118.89H219.166C218.957 116.88 218.072 115.869 216.52 115.869Z" fill="white"/>
<path d="M235.108 109.89C237.217 109.89 238.863 110.406 240.046 111.432C241.238 112.448 241.926 113.797 242.108 115.474L242.129 115.703H238.879L238.837 115.474C238.421 113.364 237.16 112.307 235.066 112.307C233.743 112.307 232.681 112.838 231.879 113.89C231.087 114.948 230.691 116.39 230.691 118.224C230.691 120.182 231.087 121.692 231.879 122.744C232.681 123.802 233.723 124.328 235.004 124.328C236.046 124.328 236.879 124.036 237.504 123.453C238.129 122.869 238.551 122.067 238.775 121.036L238.816 120.807H242.025L242.004 121.036C241.837 122.786 241.113 124.177 239.837 125.203C238.572 126.234 236.921 126.744 234.879 126.744C232.587 126.744 230.738 125.994 229.337 124.494C227.947 122.984 227.254 120.953 227.254 118.411C227.254 115.817 227.988 113.744 229.462 112.203C230.931 110.661 232.816 109.89 235.108 109.89Z" fill="white"/>
<path d="M244.381 115.411C245.532 114.203 247.121 113.599 249.152 113.599C251.194 113.599 252.782 114.203 253.923 115.411C255.074 116.619 255.652 118.203 255.652 120.161C255.652 122.109 255.074 123.692 253.923 124.911C252.782 126.135 251.194 126.744 249.152 126.744C247.121 126.744 245.532 126.135 244.381 124.911C243.241 123.692 242.673 122.109 242.673 120.161C242.673 118.203 243.241 116.619 244.381 115.411ZM246.881 123.328C247.433 124.078 248.194 124.453 249.152 124.453C250.121 124.453 250.887 124.078 251.444 123.328C251.996 122.567 252.277 121.51 252.277 120.161C252.277 118.817 251.996 117.765 251.444 117.015C250.887 116.255 250.121 115.869 249.152 115.869C248.194 115.869 247.433 116.255 246.881 117.015C246.324 117.765 246.048 118.817 246.048 120.161C246.048 121.51 246.324 122.567 246.881 123.328Z" fill="white"/>
<path d="M275.422 116.682C275.505 117.224 275.547 117.989 275.547 118.974V126.411H272.297V119.911C272.297 119.109 272.266 118.427 272.214 117.869C272.047 116.536 271.344 115.869 270.109 115.869C268.578 115.869 267.818 117.244 267.818 119.994V126.411H264.609V119.911C264.609 119.109 264.573 118.427 264.505 117.869C264.339 116.536 263.63 115.869 262.38 115.869C260.88 115.869 260.13 117.244 260.13 119.994V126.411H256.88V113.911H260.13V115.828L261.026 114.328C261.719 113.843 262.609 113.599 263.693 113.599C264.677 113.599 265.49 113.817 266.13 114.244C266.781 114.677 267.245 115.244 267.526 115.953L268.734 114.328C269.427 113.843 270.323 113.599 271.422 113.599C272.557 113.599 273.469 113.89 274.151 114.474C274.844 115.046 275.266 115.781 275.422 116.682Z" fill="white"/>
<path d="M284.925 113.599C286.644 113.599 287.998 114.192 288.988 115.369C289.988 116.536 290.488 118.057 290.488 119.932C290.488 122.088 289.915 123.76 288.78 124.953C287.639 126.151 286.217 126.744 284.509 126.744C283.217 126.744 282.238 126.505 281.571 126.036L280.759 124.744V131.015H277.509V113.911H280.759V115.828L281.696 114.453C282.405 113.885 283.477 113.599 284.925 113.599ZM283.863 124.453C284.832 124.453 285.618 124.088 286.217 123.349C286.826 122.599 287.134 121.531 287.134 120.14C287.134 118.864 286.847 117.838 286.28 117.057C285.707 116.265 284.946 115.869 283.988 115.869C283.014 115.869 282.227 116.203 281.634 116.869C281.05 117.536 280.759 118.588 280.759 120.015V120.619C280.759 121.927 281.056 122.89 281.655 123.515C282.264 124.14 282.998 124.453 283.863 124.453Z" fill="white"/>
<path d="M298.98 126.411L298.751 124.578L298.147 125.911C297.324 126.463 296.293 126.744 295.043 126.744C293.902 126.744 292.944 126.421 292.168 125.786C291.402 125.135 291.022 124.239 291.022 123.099C291.022 121.724 291.605 120.671 292.772 119.932C293.939 119.182 295.647 118.807 297.897 118.807H298.709V118.536C298.709 118.036 298.689 117.651 298.647 117.369C298.548 116.369 297.907 115.869 296.73 115.869C295.439 115.869 294.741 116.573 294.647 117.974L291.501 118.015C291.543 116.63 292.053 115.546 293.043 114.765C294.043 113.989 295.314 113.599 296.855 113.599C299.965 113.599 301.631 114.828 301.855 117.286C301.897 117.869 301.918 118.51 301.918 119.203V123.244C301.918 124.203 301.991 125.26 302.147 126.411H298.98ZM296.293 124.453C296.97 124.453 297.543 124.224 298.001 123.765C298.47 123.296 298.709 122.64 298.709 121.807V120.807C295.819 120.599 294.376 121.281 294.376 122.849C294.376 123.921 295.011 124.453 296.293 124.453Z" fill="white"/>
<path d="M315.696 117.099C315.764 117.656 315.801 118.411 315.801 119.369V126.411H312.551V119.807C312.551 119.073 312.535 118.494 312.509 118.078C312.394 116.609 311.598 115.869 310.113 115.869C309.264 115.869 308.582 116.265 308.071 117.057C307.556 117.849 307.301 119.067 307.301 120.703V126.411H304.051V113.911H307.301V115.932L308.259 114.453C309.061 113.885 310.061 113.599 311.259 113.599C312.577 113.599 313.613 113.906 314.363 114.515C315.124 115.13 315.571 115.989 315.696 117.099Z" fill="white"/>
<path d="M329.589 113.911L324.568 126.89C323.902 128.557 323.183 129.713 322.422 130.369C321.657 131.02 320.636 131.349 319.36 131.349C318.803 131.349 318.318 131.312 317.902 131.244V129.015C318.12 129.041 318.443 129.057 318.86 129.057C319.969 129.057 320.756 128.5 321.214 127.39L321.381 126.994L316.277 113.911H319.902L322.985 123.953L326.047 113.911H329.589Z" fill="white"/>
<path d="M210.755 10.3386H318.787" stroke="white" stroke-width="3.99214"/>
<path d="M319.786 4.349L327.771 10.3386L319.786 16.3282V4.349Z" fill="white" stroke="white" stroke-width="3.99214" stroke-linecap="round" stroke-linejoin="round"/>
</svg>
