<svg width="330" height="132" viewBox="0 0 330 132" fill="none" xmlns="http://www.w3.org/2000/svg">
<path d="M49.7917 88.4791H30.9792V57.9791L0 7.77081H21.7917L40.4792 41.2916L58.9375 7.77081H80.8958L49.75 57.8541L49.7917 88.4791Z" fill="#2979FF"/>
<path d="M91.7626 90.5C87.648 90.5 83.8563 89.651 80.3876 87.9583C76.9292 86.25 73.9292 83.8958 71.3876 80.8958C68.8563 77.8854 66.898 74.3958 65.5126 70.4375C64.1376 66.4791 63.4501 62.2448 63.4501 57.7291C63.4501 53.2708 64.148 49.0625 65.5542 45.1041C66.9553 41.1458 68.9188 37.6666 71.4501 34.6666C73.9917 31.6562 76.9813 29.302 80.4292 27.6041C83.8719 25.8958 87.6063 25.0416 91.6376 25.0416C96.1897 25.0416 100.221 25.8958 103.721 27.6041C107.221 29.302 109.898 31.7291 111.763 34.8958V27H129.096V88.4791H111.7V80.7083C109.835 83.8333 107.164 86.25 103.679 87.9583C100.205 89.651 96.2313 90.5 91.7626 90.5ZM96.2209 73.6458C99.023 73.6458 101.533 72.9479 103.742 71.5416C105.96 70.1406 107.726 68.2448 109.033 65.8541C110.335 63.4531 110.992 60.7448 110.992 57.7291C110.992 54.7708 110.335 52.0989 109.033 49.7083C107.726 47.3073 105.955 45.3958 103.721 43.9791C101.481 42.552 98.9969 41.8333 96.2626 41.8333C93.5803 41.8333 91.1219 42.4687 88.8876 43.7291C86.648 44.9948 84.8667 46.8125 83.5334 49.1875C82.2105 51.5625 81.5542 54.4114 81.5542 57.7291C81.5542 61.2187 82.2313 64.1406 83.5959 66.5C84.9553 68.8489 86.7522 70.625 88.9917 71.8333C91.2261 73.0416 93.6376 73.6458 96.2209 73.6458Z" fill="#2979FF"/>
<path d="M183.986 88.4792H129.319V77.4375L157.631 42.3125H130.819V27H182.569V38.2083L154.548 73.1667H183.986V88.4792Z" fill="#2979FF"/>
<path d="M192.594 19.75C190.328 19.75 188.396 19.3073 186.802 18.4167C185.203 17.5312 183.974 16.3438 183.115 14.8542C182.266 13.3698 181.844 11.7188 181.844 9.89583C181.844 8.07813 182.26 6.43229 183.094 4.95833C183.927 3.47396 185.146 2.28125 186.76 1.375C188.385 0.458333 190.349 0 192.656 0C195.031 0 197.021 0.458333 198.635 1.375C200.26 2.28125 201.49 3.47396 202.323 4.95833C203.156 6.43229 203.573 8.07813 203.573 9.89583C203.573 12.6771 202.625 15.0156 200.74 16.9167C198.865 18.8073 196.146 19.75 192.594 19.75ZM201.781 88.4792H183.51V27H201.781V88.4792Z" fill="black"/>
<path d="M234.847 90.4375C230.056 90.4375 225.66 89.5885 221.66 87.8958C217.67 86.1875 214.222 83.8437 211.306 80.8541C208.399 77.8698 206.16 74.3958 204.576 70.4375C202.993 66.4791 202.201 62.2448 202.201 57.7291C202.201 53.2708 202.993 49.0625 204.576 45.1041C206.16 41.1458 208.399 37.6666 211.306 34.6666C214.222 31.6562 217.67 29.302 221.66 27.6041C225.66 25.8958 230.076 25.0416 234.91 25.0416C239.769 25.0416 244.212 25.8958 248.243 27.6041C252.285 29.302 255.754 31.6562 258.66 34.6666C261.576 37.6666 263.832 41.1406 265.431 45.0833C267.04 49.0156 267.847 53.2291 267.847 57.7291C267.847 62.2448 267.04 66.4791 265.431 70.4375C263.832 74.3958 261.566 77.8854 258.639 80.8958C255.707 83.8958 252.222 86.2395 248.181 87.9166C244.149 89.5937 239.707 90.4375 234.847 90.4375ZM235.014 73.5833C237.899 73.5833 240.441 72.9114 242.639 71.5625C244.847 70.2187 246.582 68.3541 247.847 65.9791C249.108 63.6041 249.743 60.8541 249.743 57.7291C249.743 54.6041 249.108 51.8645 247.847 49.5C246.582 47.125 244.847 45.2656 242.639 43.9166C240.441 42.5729 237.899 41.8958 235.014 41.8958C232.165 41.8958 229.628 42.5729 227.41 43.9166C225.201 45.2656 223.462 47.125 222.201 49.5C220.936 51.8645 220.306 54.6041 220.306 57.7291C220.306 60.8541 220.936 63.6041 222.201 65.9791C223.462 68.3541 225.201 70.2187 227.41 71.5625C229.628 72.9114 232.165 73.5833 235.014 73.5833Z" fill="black"/>
<path d="M286.468 88.4791H268.197V27H285.634V34.4166C286.827 32.5573 288.389 30.927 290.322 29.5208C292.264 28.1198 294.478 27.0208 296.968 26.2291C299.468 25.4375 302.119 25.0416 304.926 25.0416C310.509 25.0416 315.119 26.2604 318.759 28.6875C322.395 31.1198 325.098 34.6145 326.863 39.1666C328.624 43.7083 329.509 49.1458 329.509 55.4791V88.4791H311.218V55.8958C311.218 52.4948 310.728 49.7604 309.759 47.6875C308.801 45.6041 307.468 44.0989 305.759 43.1666C304.061 42.2395 302.061 41.7708 299.759 41.7708C297.468 41.7708 295.301 42.3541 293.259 43.5208C291.228 44.6875 289.593 46.4739 288.343 48.875C287.093 51.2656 286.468 54.302 286.468 57.9791V88.4791Z" fill="black"/>
<path d="M135.673 109.863C137.516 109.863 138.928 110.332 139.902 111.259C140.886 112.176 141.475 113.405 141.673 114.947H138.36C138.261 114.103 137.975 113.447 137.506 112.988C137.032 112.52 136.386 112.28 135.568 112.28C134.886 112.28 134.329 112.447 133.902 112.78C133.485 113.103 133.277 113.572 133.277 114.197C133.277 114.895 133.532 115.436 134.048 115.822C134.558 116.212 135.454 116.551 136.735 116.843C138.495 117.259 139.798 117.884 140.631 118.718C141.475 119.54 141.902 120.608 141.902 121.926C141.902 123.4 141.318 124.567 140.152 125.426C138.995 126.29 137.589 126.718 135.923 126.718C133.949 126.718 132.37 126.29 131.193 125.426C130.027 124.551 129.36 123.275 129.193 121.593H132.506C132.683 122.457 133.079 123.124 133.693 123.593C134.303 124.067 135.027 124.301 135.86 124.301C136.61 124.301 137.24 124.113 137.756 123.738C138.266 123.363 138.527 122.874 138.527 122.259C138.527 121.567 138.277 121.009 137.777 120.593C137.287 120.165 136.454 119.811 135.277 119.53C133.454 119.087 132.1 118.504 131.214 117.78C130.324 117.061 129.881 115.999 129.881 114.593C129.881 113.165 130.443 112.02 131.568 111.155C132.693 110.296 134.058 109.863 135.673 109.863Z" fill="black"/>
<path d="M143.957 115.384C145.108 114.176 146.697 113.572 148.728 113.572C150.77 113.572 152.358 114.176 153.499 115.384C154.65 116.593 155.228 118.176 155.228 120.134C155.228 122.082 154.65 123.666 153.499 124.884C152.358 126.108 150.77 126.718 148.728 126.718C146.697 126.718 145.108 126.108 143.957 124.884C142.817 123.666 142.249 122.082 142.249 120.134C142.249 118.176 142.817 116.593 143.957 115.384ZM146.457 123.301C147.009 124.051 147.77 124.426 148.728 124.426C149.697 124.426 150.462 124.051 151.02 123.301C151.572 122.541 151.853 121.483 151.853 120.134C151.853 118.791 151.572 117.738 151.02 116.988C150.462 116.228 149.697 115.843 148.728 115.843C147.77 115.843 147.009 116.228 146.457 116.988C145.9 117.738 145.624 118.791 145.624 120.134C145.624 121.483 145.9 122.541 146.457 123.301Z" fill="black"/>
<path d="M160.091 112.301C160.049 112.525 160.028 112.884 160.028 113.384V113.988H162.591V116.134H160.028V126.384H156.799V116.134H155.466V113.988H156.799V113.468C156.799 112.801 156.81 112.322 156.841 112.03C157.049 109.796 158.56 108.676 161.382 108.676C161.841 108.676 162.31 108.733 162.799 108.843V111.093C162.034 110.957 161.403 110.999 160.903 111.218C160.414 111.426 160.143 111.79 160.091 112.301Z" fill="black"/>
<path d="M167.41 116.134V121.905C167.41 122.421 167.415 122.791 167.431 123.009C167.472 123.624 167.649 124.02 167.972 124.197C168.29 124.379 168.894 124.436 169.785 124.363V126.488C169.102 126.582 168.389 126.634 167.639 126.634C166.457 126.634 165.608 126.436 165.097 126.051C164.582 125.65 164.29 124.999 164.222 124.093C164.181 123.718 164.16 123.113 164.16 122.28V116.134H162.347V113.988H164.16V110.905H167.41V113.988H169.993V116.134H167.41Z" fill="black"/>
<path d="M189.206 113.884L185.227 126.384H181.561L179.456 116.884L177.311 126.384H173.623L169.665 113.884H173.29L175.477 123.676L177.54 113.947H181.436L183.54 123.655L185.727 113.884H189.206Z" fill="black"/>
<path d="M197.041 126.384L196.811 124.551L196.207 125.884C195.384 126.436 194.353 126.718 193.103 126.718C191.962 126.718 191.004 126.395 190.228 125.759C189.462 125.108 189.082 124.212 189.082 123.072C189.082 121.697 189.666 120.645 190.832 119.905C191.999 119.155 193.707 118.78 195.957 118.78H196.77V118.509C196.77 118.009 196.749 117.624 196.707 117.343C196.608 116.343 195.968 115.843 194.791 115.843C193.499 115.843 192.801 116.546 192.707 117.947L189.561 117.988C189.603 116.603 190.114 115.52 191.103 114.738C192.103 113.962 193.374 113.572 194.916 113.572C198.025 113.572 199.692 114.801 199.916 117.259C199.957 117.843 199.978 118.483 199.978 119.176V123.218C199.978 124.176 200.051 125.233 200.207 126.384H197.041ZM194.353 124.426C195.03 124.426 195.603 124.197 196.061 123.738C196.53 123.27 196.77 122.613 196.77 121.78V120.78C193.879 120.572 192.436 121.254 192.436 122.822C192.436 123.895 193.072 124.426 194.353 124.426Z" fill="black"/>
<path d="M208.474 113.593C208.834 113.593 209.141 113.624 209.391 113.676V116.28C208.016 116.197 207 116.499 206.349 117.176C205.693 117.858 205.37 119.02 205.37 120.655V126.384H202.12V113.884H205.37V116.176L206.349 114.426C206.959 113.874 207.667 113.593 208.474 113.593Z" fill="black"/>
<path d="M221.509 119.884C221.509 120.343 221.493 120.712 221.467 120.988H212.592C212.785 123.28 213.748 124.426 215.488 124.426C216.18 124.426 216.759 124.238 217.217 123.863C217.686 123.488 217.977 122.978 218.092 122.322H221.321C221.014 123.754 220.331 124.843 219.279 125.593C218.222 126.343 216.93 126.718 215.404 126.718C213.613 126.718 212.144 126.166 211.009 125.051C209.884 123.926 209.321 122.301 209.321 120.176C209.321 118.249 209.904 116.666 211.071 115.426C212.238 114.192 213.769 113.572 215.675 113.572C217.509 113.572 218.936 114.176 219.967 115.384C220.993 116.582 221.509 118.082 221.509 119.884ZM215.529 115.843C213.915 115.843 212.972 116.853 212.696 118.863H218.175C217.967 116.853 217.081 115.843 215.529 115.843Z" fill="black"/>
<path d="M234.13 109.863C236.239 109.863 237.885 110.379 239.068 111.405C240.26 112.421 240.948 113.77 241.13 115.447L241.151 115.676H237.901L237.859 115.447C237.443 113.337 236.182 112.28 234.088 112.28C232.765 112.28 231.703 112.811 230.901 113.863C230.109 114.921 229.713 116.363 229.713 118.197C229.713 120.155 230.109 121.665 230.901 122.718C231.703 123.775 232.745 124.301 234.026 124.301C235.068 124.301 235.901 124.009 236.526 123.426C237.151 122.843 237.573 122.04 237.797 121.009L237.838 120.78H241.047L241.026 121.009C240.859 122.759 240.135 124.15 238.859 125.176C237.594 126.207 235.943 126.718 233.901 126.718C231.609 126.718 229.76 125.968 228.359 124.468C226.969 122.957 226.276 120.926 226.276 118.384C226.276 115.79 227.01 113.718 228.484 112.176C229.953 110.634 231.838 109.863 234.13 109.863Z" fill="black"/>
<path d="M243.415 115.384C244.566 114.176 246.154 113.572 248.186 113.572C250.227 113.572 251.816 114.176 252.956 115.384C254.107 116.593 254.686 118.176 254.686 120.134C254.686 122.082 254.107 123.666 252.956 124.884C251.816 126.108 250.227 126.718 248.186 126.718C246.154 126.718 244.566 126.108 243.415 124.884C242.274 123.666 241.706 122.082 241.706 120.134C241.706 118.176 242.274 116.593 243.415 115.384ZM245.915 123.301C246.467 124.051 247.227 124.426 248.186 124.426C249.154 124.426 249.92 124.051 250.477 123.301C251.029 122.541 251.311 121.483 251.311 120.134C251.311 118.791 251.029 117.738 250.477 116.988C249.92 116.228 249.154 115.843 248.186 115.843C247.227 115.843 246.467 116.228 245.915 116.988C245.357 117.738 245.081 118.791 245.081 120.134C245.081 121.483 245.357 122.541 245.915 123.301Z" fill="black"/>
<path d="M274.465 116.655C274.548 117.197 274.59 117.962 274.59 118.947V126.384H271.34V119.884C271.34 119.082 271.309 118.4 271.257 117.843C271.09 116.509 270.387 115.843 269.153 115.843C267.621 115.843 266.861 117.218 266.861 119.968V126.384H263.653V119.884C263.653 119.082 263.616 118.4 263.548 117.843C263.382 116.509 262.673 115.843 261.423 115.843C259.923 115.843 259.173 117.218 259.173 119.968V126.384H255.923V113.884H259.173V115.801L260.069 114.301C260.762 113.817 261.653 113.572 262.736 113.572C263.72 113.572 264.533 113.791 265.173 114.218C265.824 114.65 266.288 115.218 266.569 115.926L267.778 114.301C268.47 113.817 269.366 113.572 270.465 113.572C271.6 113.572 272.512 113.863 273.194 114.447C273.887 115.02 274.309 115.754 274.465 116.655Z" fill="black"/>
<path d="M283.983 113.572C285.702 113.572 287.056 114.166 288.046 115.343C289.046 116.509 289.546 118.03 289.546 119.905C289.546 122.061 288.973 123.733 287.837 124.926C286.697 126.124 285.275 126.718 283.566 126.718C282.275 126.718 281.296 126.478 280.629 126.009L279.816 124.718V130.988H276.566V113.884H279.816V115.801L280.754 114.426C281.462 113.858 282.535 113.572 283.983 113.572ZM282.921 124.426C283.889 124.426 284.676 124.061 285.275 123.322C285.884 122.572 286.191 121.504 286.191 120.113C286.191 118.837 285.905 117.811 285.337 117.03C284.764 116.238 284.004 115.843 283.046 115.843C282.072 115.843 281.285 116.176 280.691 116.843C280.108 117.509 279.816 118.561 279.816 119.988V120.593C279.816 121.9 280.113 122.863 280.712 123.488C281.322 124.113 282.056 124.426 282.921 124.426Z" fill="black"/>
<path d="M298.048 126.384L297.819 124.551L297.215 125.884C296.392 126.436 295.361 126.718 294.111 126.718C292.97 126.718 292.012 126.395 291.236 125.759C290.47 125.108 290.09 124.212 290.09 123.072C290.09 121.697 290.673 120.645 291.84 119.905C293.006 119.155 294.715 118.78 296.965 118.78H297.777V118.509C297.777 118.009 297.756 117.624 297.715 117.343C297.616 116.343 296.975 115.843 295.798 115.843C294.506 115.843 293.808 116.546 293.715 117.947L290.569 117.988C290.611 116.603 291.121 115.52 292.111 114.738C293.111 113.962 294.381 113.572 295.923 113.572C299.032 113.572 300.699 114.801 300.923 117.259C300.965 117.843 300.986 118.483 300.986 119.176V123.218C300.986 124.176 301.058 125.233 301.215 126.384H298.048ZM295.361 124.426C296.038 124.426 296.611 124.197 297.069 123.738C297.538 123.27 297.777 122.613 297.777 121.78V120.78C294.887 120.572 293.444 121.254 293.444 122.822C293.444 123.895 294.079 124.426 295.361 124.426Z" fill="black"/>
<path d="M314.773 117.072C314.841 117.629 314.877 118.384 314.877 119.343V126.384H311.627V119.78C311.627 119.046 311.612 118.468 311.586 118.051C311.471 116.582 310.674 115.843 309.19 115.843C308.341 115.843 307.659 116.238 307.148 117.03C306.633 117.822 306.377 119.041 306.377 120.676V126.384H303.127V113.884H306.377V115.905L307.336 114.426C308.138 113.858 309.138 113.572 310.336 113.572C311.653 113.572 312.69 113.879 313.44 114.488C314.2 115.103 314.648 115.962 314.773 117.072Z" fill="black"/>
<path d="M328.676 113.884L323.655 126.863C322.988 128.53 322.27 129.686 321.509 130.343C320.744 130.994 319.723 131.322 318.447 131.322C317.889 131.322 317.405 131.285 316.988 131.218V128.988C317.207 129.014 317.53 129.03 317.947 129.03C319.056 129.03 319.843 128.473 320.301 127.363L320.468 126.968L315.363 113.884H318.988L322.072 123.926L325.134 113.884H328.676Z" fill="black"/>
<path d="M209.862 9.65277H317.893" stroke="black" stroke-width="3.99214"/>
<path d="M318.893 3.66321L326.877 9.65279L318.893 15.6424V3.66321Z" fill="black" stroke="black" stroke-width="3.99214" stroke-linecap="round" stroke-linejoin="round"/>
</svg>
