<svg width="1028" height="778" viewBox="0 0 1028 778" fill="none" xmlns="http://www.w3.org/2000/svg">
<g clip-path="url(#clip0_7_2189)">
<path fill-rule="evenodd" clip-rule="evenodd" d="M842.225 181.334C841.692 180.946 840.426 180.809 839.838 180.692C837.39 180.21 834.869 180 832.374 180C824.681 180.012 816.863 180.767 809.298 182.074C804.494 182.903 798.687 185.696 793.909 184.179C785.585 181.537 777.172 181.667 769.274 185.439C762.053 188.888 756.572 195.439 753.373 202.517C752.89 203.586 750.932 207.519 750.378 210.17C750.141 210.712 749.913 211.257 749.708 211.811C749.126 213.384 748.603 214.984 748.118 216.588C747.91 217.272 747.389 218.782 748.008 219.074C747.019 220.901 746.141 222.783 745.411 224.726C743.286 230.378 740.962 236.578 740.215 242.568C739.939 244.786 739.928 247.017 740.185 249.239C740.312 250.338 740.26 252.546 741.004 253.382C742.585 255.154 743.396 252.673 743.218 251.491C741.858 242.485 744.485 234.027 747.598 225.561C749.612 220.087 752.92 215.078 756.626 210.543C759.625 206.871 762.842 203.98 766.953 201.546C771.981 198.569 777.356 196.163 782.681 193.749C786.184 192.161 789.691 190.615 793.291 189.247C794.092 188.942 795.351 188.161 796.239 188.158C798.116 188.152 800.777 189.537 802.59 190.052C808.554 191.748 814.594 193.919 820.758 194.785C824.712 195.341 828.416 194.715 832.113 193.398C832.491 193.264 833.125 192.918 833.901 192.424C836.646 191.368 839.243 190.039 841.504 188.121C842.806 187.017 843.989 185.589 845.067 184.282C845.389 183.892 845.532 183.444 845.537 183.018C845.781 182.891 845.943 182.741 845.98 182.567C846.249 181.281 843.796 181.258 842.225 181.334" fill="#89C5CC"/>
<path fill-rule="evenodd" clip-rule="evenodd" d="M217.273 288.541C215.764 289.763 214.284 291.011 212.84 292.31C211.739 293.3 209.791 294.485 209.396 295.985C208.985 297.544 210.282 299.003 211.306 299.945C216.723 304.929 222.823 308.298 230.329 308.859C241.887 309.722 251.946 306.77 261.974 300.963C269.018 296.883 273.684 290.849 274.703 282.701C283.092 286.187 291.205 290.993 298.1 296.891C301.502 299.801 304.432 303.025 307.142 306.599C308.878 308.889 310.557 311.215 312.115 313.631C312.792 314.68 313.481 316.542 314.599 317.146C315.912 317.856 317.499 316.743 317.434 315.284C317.379 314.069 316.068 312.66 315.454 311.667C314.436 310.018 313.402 308.379 312.313 306.776C310.551 304.179 308.73 301.62 306.744 299.19C302.28 293.73 296.601 289.221 290.714 285.375C279.42 277.997 267.025 273.349 253.283 272.955C244.833 272.713 237.725 275.6 230.499 279.911C226 282.595 221.356 285.235 217.273 288.541" fill="#DDE3E9"/>
<path fill-rule="evenodd" clip-rule="evenodd" d="M326.883 252.855C318.077 243.787 309.241 234.832 299.403 226.846C293.605 222.141 287.495 217.862 281.511 213.401C282.201 214.006 282.878 214.628 283.539 215.266C281.671 213.998 279.226 213.281 277.246 212.107C275.037 210.798 272.925 209.3 270.854 207.791C266.811 204.845 262.829 201.843 258.673 199.051C254.043 195.94 249.245 193.066 244.536 190.072C240.539 187.532 236.494 184.751 232.218 182.674C229.888 181.542 227.553 180.201 225.213 179.02C224.43 178.625 216.484 173.608 216.504 173.592C216.943 173.262 220.942 175.14 221.56 175.393C223.366 176.131 225.094 177.013 226.83 177.893C225.877 176.013 225.123 174.037 224.712 171.958C224.585 171.316 223.569 166.644 224.089 166.252C224.348 166.056 226.883 174.416 227.013 175.219C227.119 175.872 227.103 176.812 227.317 177.43C227.662 178.429 227.645 178.127 228.405 178.69C229.798 179.721 231.647 180.365 233.154 181.226C233.968 181.68 236.485 183.48 238.001 183.993C242.588 186.221 247.238 189.649 251.597 192.495C250.453 190.345 249.582 188.097 248.948 185.741C248.797 185.182 247.167 180.165 247.563 179.867C248.008 179.531 251.112 187.195 251.296 187.92C251.637 189.268 251.708 190.767 252.136 192.079C252.605 193.518 254.07 194.028 255.39 194.867C260.247 197.953 264.938 201.232 269.55 204.662C274.583 195.711 268.78 184.903 263.89 177.393C260.364 171.98 255.619 167.34 250.608 163.289C243.92 157.882 236.269 153.563 228.627 149.612C219.723 145.009 210.099 142.156 200.093 140.839C194.86 140.149 189.507 140.169 184.221 140.39C181.639 140.497 179.16 140.839 176.686 141.682C175.57 142.062 174.492 142.541 173.442 143.077C172.644 143.484 170.713 143.914 170.255 144.521C166.477 149.438 164.545 154.337 164.84 160.515C165.119 166.363 166.966 172.214 169.472 177.431C172.264 183.239 175.854 188.511 180.55 192.936C184.132 196.312 188.137 199.25 192.116 202.15C206.267 212.463 224.208 221.433 242.536 219.128C248.469 218.383 254.112 216.308 259.385 213.488C260.628 212.824 261.863 212.152 263.036 211.368C263.827 210.839 265.941 208.456 266.736 208.369C267.827 208.251 270.175 210.468 271.198 211.143C278.972 216.275 286.542 221.685 293.953 227.313C301.839 233.301 309.337 239.697 316.615 246.393C319.71 249.242 322.786 252.096 325.791 255.04C326.491 255.725 328.202 258.247 329.471 258.361C330.273 258.434 330.814 257.748 330.7 257.006C330.501 255.715 327.785 253.784 326.883 252.855" fill="#C1DEE2"/>
<path fill-rule="evenodd" clip-rule="evenodd" d="M832.98 217.66C829.57 216.915 825.803 216.972 822.329 217.033C803.695 217.287 785.397 226.109 773.489 240.205C763.351 252.205 760.563 267.125 758.56 282.207C758.362 283.704 758.277 285.192 758.165 286.693C758.141 287.015 758.105 287.302 758.066 287.573C757.279 288.277 756.865 289.098 757.332 290C755.597 293.797 754.129 297.69 752.869 301.706C749.162 313.526 745.392 325.571 747.714 338C748.257 331.16 749.399 324.166 750.764 317.438C750.842 317.052 750.927 316.669 751.015 316.287C751.025 316.247 751.033 316.206 751.042 316.166C751.525 314.106 752.153 312.108 752.917 310.141C752.925 310.119 752.933 310.098 752.941 310.077C753.042 309.818 753.149 309.56 753.255 309.303C753.474 308.77 753.699 308.238 753.937 307.709C754.018 307.528 754.095 307.346 754.17 307.163C755.282 304.437 755.751 301.365 756.748 298.545C756.986 297.904 757.235 297.265 757.496 296.629C757.512 296.592 757.527 296.555 757.543 296.518C758.249 294.807 759.028 293.118 759.853 291.446C760.301 291.11 760.54 290.274 760.927 289.515C761.006 289.365 761.631 288.368 761.817 287.793C762.303 286.854 762.786 285.915 763.275 284.977C763.261 284.983 763.246 284.988 763.231 284.994C763.72 284.093 764.211 283.197 764.698 282.304C764.805 282.108 764.913 281.912 765.021 281.715C765.196 281.402 765.371 281.089 765.545 280.777C767.177 277.856 768.908 274.994 770.705 272.167C771.347 271.158 772.879 269.711 773.173 268.579C773.184 268.536 773.186 268.497 773.193 268.457C777.093 262.979 781.582 257.927 786.967 253.924C786.316 254.628 784.932 257.015 784.567 257.488C783.447 258.935 782.232 260.282 781.013 261.646C778.828 264.089 776.696 266.609 774.801 269.274C771.335 274.148 768.346 279.277 765.519 284.51C765.493 284.54 765.463 284.569 765.438 284.601C764.017 286.352 763.123 288.998 762.101 291.001C766.147 289.127 770.622 287.906 774.774 286.242C778.916 284.583 782.944 282.735 786.834 280.566C792.003 277.682 797.366 274.427 802.25 270.743C807.847 267.271 812.551 262.492 816.703 257.477C821.615 251.543 826.117 245.558 828.901 238.353C830.269 234.813 831.345 231.121 831.983 227.386C832.011 227.224 832.046 227.047 832.085 226.864C832.738 225.574 833.321 224.255 833.811 222.906C834.588 220.766 836.425 218.412 832.98 217.66" fill="#69A1AC"/>
<path fill-rule="evenodd" clip-rule="evenodd" d="M145.465 217.834C143.956 216.33 142.261 214.972 140.271 214.004C139.768 213.76 136.021 212.12 135.777 212.48C135.208 213.318 145.011 217.354 145.465 217.834M163.231 207.784C163.219 207.848 164.519 209.878 164.872 210.502C165.625 211.829 166.32 213.182 166.974 214.538C166.006 212.144 165.011 209.923 163.231 207.784M72.3664 224.31C71.115 224.681 69.6104 223.219 71.2336 222.858C72.547 222.569 72.4826 222.501 73.0723 221.527C73.5512 220.736 73.8463 219.771 74.2665 218.941C75.1578 217.18 76.1689 215.501 77.4101 213.927C80.07 210.554 83.3108 207.648 86.9457 205.198C93.2892 200.924 100.402 197.018 107.947 195.056C119.943 191.935 133.597 191.742 145.612 193.906C153.054 195.246 159.854 197.575 164.796 203.092C167.265 205.849 169.204 209.079 170.051 212.636C170.272 213.566 170.231 214.6 170.508 215.51C170.934 216.909 170.746 216.537 172.523 216.809C174.464 217.106 176.404 217.41 178.343 217.718C183.419 218.527 188.525 219.385 193.472 220.698C195.1 221.129 196.692 221.657 198.247 222.27C199.424 222.733 204.108 224.188 204.677 225.595C205.625 227.937 202.45 226.875 201.463 226.365C200.599 225.918 199.712 225.502 198.812 225.118C196.546 224.152 194.185 223.405 191.77 222.811C189.161 222.168 186.498 221.688 183.846 221.208C181.372 220.76 178.889 220.353 176.403 219.964C175.022 219.747 173.64 219.537 172.258 219.327C171.786 219.255 170.953 218.879 171.016 219.444C168.11 218.928 164.968 219.003 162.007 218.86C158.382 218.686 154.743 218.543 151.105 218.648C148.482 218.723 145.856 218.882 143.246 219.206C141.72 219.396 140.219 219.674 138.723 220.025C137.901 220.218 134.66 220.627 134.212 221.287C134.404 221.004 137.982 221.279 138.437 221.263C140.258 221.2 142.065 221.034 143.88 220.847C147.247 220.501 150.616 220.32 153.994 220.346C153.981 220.892 151.673 221.865 151.11 222.226C149.847 223.038 148.638 223.923 147.509 224.894C145.522 226.604 143.141 228.723 141.766 230.749C142.172 230.152 144.171 229.375 144.88 228.919C146.017 228.187 147.13 227.408 148.183 226.574C149.156 225.804 150.063 224.972 150.956 224.123C151.848 223.273 153.059 221.506 154.232 220.941C154.303 220.906 154.814 221.278 155.104 221.152C155.397 221.024 155.761 220.388 155.836 220.362C156.927 219.974 159 220.456 160.148 220.505C163.123 220.631 166.096 220.797 169.07 220.947C169.992 220.994 170.774 220.801 171.122 221.427C171.493 222.094 170.814 223.848 170.62 224.575C169.903 227.275 168.63 229.696 166.625 231.787C162.871 235.705 158.242 238.316 153.012 240.063C132.982 246.755 111.671 249.435 91.6467 242.474C83.3566 239.592 70.8715 234.442 72.3664 224.31" fill="#89C5CC"/>
<g opacity="0.6" clip-path="url(#clip1_7_2189)">
<path fill-rule="evenodd" clip-rule="evenodd" d="M989.666 539.569C1003.3 624.512 672.764 679.918 388.267 641.251C103.771 602.585 -26.7427 451.589 109.014 371.133C244.771 290.676 976.037 454.626 989.666 539.569Z" fill="#DDE3E9"/>
</g>
<g clip-path="url(#clip2_7_2189)">
<rect x="290" y="62" width="159" height="302" rx="8" fill="#F2F2F2"/>
<path fill-rule="evenodd" clip-rule="evenodd" d="M369 345C377.284 345 384 338.284 384 330C384 321.716 377.284 315 369 315C360.716 315 354 321.716 354 330C354 338.284 360.716 345 369 345Z" fill="white"/>
<path fill-rule="evenodd" clip-rule="evenodd" d="M356 82C357.105 82 358 81.1046 358 80C358 78.8954 357.105 78 356 78C354.895 78 354 78.8954 354 80C354 81.1046 354.895 82 356 82Z" fill="white"/>
<rect x="363" y="78" width="21" height="4" rx="2" fill="white"/>
<g clip-path="url(#clip3_7_2189)">
<g clip-path="url(#clip4_7_2189)">
<rect x="304" y="90" width="131" height="54" rx="4" fill="white"/>
<g clip-path="url(#clip5_7_2189)">
<rect x="343" y="106.2" width="73" height="8.1" rx="3" fill="#DDE3E9"/>
<rect x="343" y="119.7" width="49" height="8.1" rx="3" fill="#DDE3E9"/>
</g>
<path fill-rule="evenodd" clip-rule="evenodd" d="M325 129C331.627 129 337 123.627 337 117C337 110.373 331.627 105 325 105C318.373 105 313 110.373 313 117C313 123.627 318.373 129 325 129Z" fill="#C5CFD6"/>
</g>
<g clip-path="url(#clip6_7_2189)">
<rect x="304" y="152" width="131" height="42" rx="4" fill="white"/>
<g clip-path="url(#clip7_7_2189)">
<rect x="343" y="164.6" width="73" height="6.3" rx="3" fill="#DDE3E9"/>
<rect x="343" y="175.1" width="49" height="6.3" rx="3" fill="#DDE3E9"/>
</g>
<path fill-rule="evenodd" clip-rule="evenodd" d="M325 185C331.627 185 337 179.627 337 173C337 166.373 331.627 161 325 161C318.373 161 313 166.373 313 173C313 179.627 318.373 185 325 185Z" fill="#C5CFD6"/>
</g>
<g clip-path="url(#clip8_7_2189)">
<rect x="304" y="202" width="131" height="42" rx="4" fill="white"/>
<g clip-path="url(#clip9_7_2189)">
<rect x="343" y="214.6" width="73" height="6.3" rx="3" fill="#DDE3E9"/>
<rect x="343" y="225.1" width="49" height="6.3" rx="3" fill="#DDE3E9"/>
</g>
<path fill-rule="evenodd" clip-rule="evenodd" d="M325 235C331.627 235 337 229.627 337 223C337 216.373 331.627 211 325 211C318.373 211 313 216.373 313 223C313 229.627 318.373 235 325 235Z" fill="#AFB9C5"/>
</g>
<g clip-path="url(#clip10_7_2189)">
<rect x="304" y="252" width="131" height="42" rx="4" fill="white"/>
<g clip-path="url(#clip11_7_2189)">
<rect x="343" y="264.6" width="73" height="6.3" rx="3" fill="#DDE3E9"/>
<rect x="343" y="275.1" width="49" height="6.3" rx="3" fill="#DDE3E9"/>
</g>
<path fill-rule="evenodd" clip-rule="evenodd" d="M325 285C331.627 285 337 279.627 337 273C337 266.373 331.627 261 325 261C318.373 261 313 266.373 313 273C313 279.627 318.373 285 325 285Z" fill="#C5CFD6"/>
</g>
</g>
</g>
<g clip-path="url(#clip12_7_2189)">
<path fill-rule="evenodd" clip-rule="evenodd" d="M320.14 306C318.815 306 317.494 306.027 316.171 306.095C315.162 306.148 313.621 305.939 312.768 306.568C311.881 307.221 311.942 308.557 312.081 309.501C312.813 314.493 314.6 318.919 318.339 322.456C324.096 327.901 330.695 330.668 338.504 331.9C343.99 332.766 349.054 331.564 353.092 327.663C356.043 333.139 358.281 339.199 359.404 345.315C359.958 348.333 360.127 351.315 360.03 354.388C359.967 356.356 359.859 358.32 359.648 360.279C359.556 361.13 359.122 362.418 359.455 363.223C359.846 364.167 361.165 364.259 361.757 363.453C362.25 362.783 362.16 361.466 362.261 360.673C362.429 359.355 362.584 358.036 362.695 356.712C362.876 354.569 363.009 352.42 363 350.268C362.977 345.435 361.902 340.583 360.432 335.995C357.612 327.192 353.037 319.369 345.921 313.231C341.545 309.457 336.537 307.929 330.856 307.108C327.318 306.597 323.723 306 320.14 306" fill="#89C5CC"/>
<path fill-rule="evenodd" clip-rule="evenodd" d="M340.571 341C326.272 341 316.642 352.524 312.089 364.502C310.372 369.016 309.97 373.974 309.308 378.714C309.096 380.236 309.175 382.554 308.557 383.909C308.333 384.401 307.819 384.577 308.065 385.247C308.214 385.652 308.505 385.901 308.944 385.981C309.843 386.147 311.115 385.167 311.886 384.781C318.282 381.573 322.484 376.613 325.912 370.545C328.038 366.784 330.194 362.879 331.456 358.75C332.227 356.227 332.676 353.571 332.94 350.954C333.044 349.923 333.144 348.868 333.138 347.832C333.132 346.803 332.653 346.259 332.309 345.364C337.08 343.558 342.466 343.066 347.299 344.937C351.769 346.668 355.482 350.013 357.561 354.216C358.101 355.308 358.518 356.46 358.821 357.636C359.02 358.406 359.029 359.404 359.398 360.1C360.29 361.788 362.168 360.66 361.988 359.089C361.485 354.708 358.979 350.309 355.775 347.263C351.734 343.421 346.258 341 340.571 341" fill="#89C5CC"/>
<rect x="356" y="88" width="159" height="302" rx="8" fill="#DDE3E9"/>
<path fill-rule="evenodd" clip-rule="evenodd" d="M435 371C443.284 371 450 364.284 450 356C450 347.716 443.284 341 435 341C426.716 341 420 347.716 420 356C420 364.284 426.716 371 435 371Z" fill="white"/>
<path fill-rule="evenodd" clip-rule="evenodd" d="M422 108C423.105 108 424 107.105 424 106C424 104.895 423.105 104 422 104C420.895 104 420 104.895 420 106C420 107.105 420.895 108 422 108Z" fill="white"/>
<rect x="429" y="104" width="21" height="4" rx="2" fill="white"/>
<g clip-path="url(#clip13_7_2189)">
<g clip-path="url(#clip14_7_2189)">
<rect x="370" y="116" width="131" height="54" rx="4" fill="white"/>
<g clip-path="url(#clip15_7_2189)">
<rect x="379" y="132.2" width="73" height="8.1" rx="3" fill="#DDE3E9"/>
<rect x="379" y="145.7" width="49" height="8.1" rx="3" fill="#DDE3E9"/>
</g>
<path fill-rule="evenodd" clip-rule="evenodd" d="M487 150C490.866 150 494 146.866 494 143C494 139.134 490.866 136 487 136C483.134 136 480 139.134 480 143C480 146.866 483.134 150 487 150Z" fill="#DDE3E9"/>
<path fill-rule="evenodd" clip-rule="evenodd" d="M487 146C488.657 146 490 144.657 490 143C490 141.343 488.657 140 487 140C485.343 140 484 141.343 484 143C484 144.657 485.343 146 487 146Z" fill="#F2F2F2"/>
</g>
<g clip-path="url(#clip16_7_2189)">
<rect x="370" y="178" width="131" height="42" rx="4" fill="white"/>
<g clip-path="url(#clip17_7_2189)">
<rect x="409" y="190.6" width="73" height="6.3" rx="3" fill="#DDE3E9"/>
<rect x="409" y="201.1" width="49" height="6.3" rx="3" fill="#DDE3E9"/>
</g>
<path fill-rule="evenodd" clip-rule="evenodd" d="M391 211C397.627 211 403 205.627 403 199C403 192.373 397.627 187 391 187C384.373 187 379 192.373 379 199C379 205.627 384.373 211 391 211Z" fill="#C5CFD6"/>
</g>
<g clip-path="url(#clip18_7_2189)">
<rect x="370" y="228" width="131" height="42" rx="4" fill="white"/>
<g clip-path="url(#clip19_7_2189)">
<rect x="379" y="240.6" width="73" height="6.3" rx="3" fill="#DDE3E9"/>
<rect x="379" y="251.1" width="49" height="6.3" rx="3" fill="#AFB9C5"/>
</g>
<path fill-rule="evenodd" clip-rule="evenodd" d="M487 256C490.866 256 494 252.866 494 249C494 245.134 490.866 242 487 242C483.134 242 480 245.134 480 249C480 252.866 483.134 256 487 256Z" fill="#DDE3E9"/>
<path fill-rule="evenodd" clip-rule="evenodd" d="M487 252C488.657 252 490 250.657 490 249C490 247.343 488.657 246 487 246C485.343 246 484 247.343 484 249C484 250.657 485.343 252 487 252Z" fill="#F2F2F2"/>
</g>
<g clip-path="url(#clip20_7_2189)">
<rect x="370" y="278" width="131" height="42" rx="4" fill="white"/>
<g clip-path="url(#clip21_7_2189)">
<rect x="409" y="290.6" width="73" height="6.3" rx="3" fill="#DDE3E9"/>
<rect x="409" y="301.1" width="49" height="6.3" rx="3" fill="#DDE3E9"/>
</g>
<path fill-rule="evenodd" clip-rule="evenodd" d="M391 311C397.627 311 403 305.627 403 299C403 292.373 397.627 287 391 287C384.373 287 379 292.373 379 299C379 305.627 384.373 311 391 311Z" fill="#C5CFD6"/>
</g>
</g>
</g>
<g clip-path="url(#clip22_7_2189)">
<rect x="422" y="113" width="335" height="346" rx="8" fill="#F2F2F2"/>
<rect x="671" y="156" width="70" height="81" rx="8" fill="white"/>
<path fill-rule="evenodd" clip-rule="evenodd" d="M706 203C714.837 203 722 195.837 722 187C722 178.163 714.837 171 706 171C697.163 171 690 178.163 690 187C690 195.837 697.163 203 706 203Z" fill="#DDE3E9"/>
<rect x="681" y="207" width="50" height="6" rx="3" fill="#DDE3E9"/>
<rect x="689" y="217" width="34" height="6" rx="3" fill="#DDE3E9"/>
<path d="M422 121C422 116.582 425.582 113 430 113H749C753.418 113 757 116.582 757 121V140H422V121Z" fill="#C5CFD6"/>
<path fill-rule="evenodd" clip-rule="evenodd" d="M435 131C437.209 131 439 129.209 439 127C439 124.791 437.209 123 435 123C432.791 123 431 124.791 431 127C431 129.209 432.791 131 435 131Z" fill="#F2F2F2"/>
<path fill-rule="evenodd" clip-rule="evenodd" d="M447 131C449.209 131 451 129.209 451 127C451 124.791 449.209 123 447 123C444.791 123 443 124.791 443 127C443 129.209 444.791 131 447 131Z" fill="#F2F2F2"/>
<path fill-rule="evenodd" clip-rule="evenodd" d="M459 131C461.209 131 463 129.209 463 127C463 124.791 461.209 123 459 123C456.791 123 455 124.791 455 127C455 129.209 456.791 131 459 131Z" fill="#F2F2F2"/>
<g clip-path="url(#clip23_7_2189)">
<rect x="671" y="245" width="70" height="194" rx="8" fill="white"/>
<g clip-path="url(#clip24_7_2189)">
<rect x="689" y="263" width="34" height="26" rx="4" fill="#DDE3E9"/>
<rect x="689" y="297" width="34" height="25" rx="4" fill="#AFB9C5"/>
<rect x="689" y="330" width="34" height="25" rx="4" fill="#DDE3E9"/>
<rect x="689" y="396" width="34" height="25" rx="4" fill="#DDE3E9"/>
<rect x="689" y="363" width="34" height="25" rx="4" fill="#C5CFD6"/>
</g>
</g>
<g clip-path="url(#clip25_7_2189)">
<g clip-path="url(#clip26_7_2189)">
<rect x="438" y="157" width="225" height="47" rx="4" fill="white"/>
<g clip-path="url(#clip27_7_2189)">
<rect x="447" y="171.1" width="167" height="7.05" rx="3" fill="#DDE3E9"/>
<rect x="447" y="182.85" width="112.096" height="7.05" rx="3" fill="#DDE3E9"/>
</g>
<path fill-rule="evenodd" clip-rule="evenodd" d="M638.954 187.5C642.82 187.5 645.954 184.366 645.954 180.5C645.954 176.634 642.82 173.5 638.954 173.5C635.088 173.5 631.954 176.634 631.954 180.5C631.954 184.366 635.088 187.5 638.954 187.5Z" fill="#DDE3E9"/>
<path fill-rule="evenodd" clip-rule="evenodd" d="M638.954 183.5C640.611 183.5 641.954 182.157 641.954 180.5C641.954 178.843 640.611 177.5 638.954 177.5C637.297 177.5 635.954 178.843 635.954 180.5C635.954 182.157 637.297 183.5 638.954 183.5Z" fill="#F2F2F2"/>
</g>
<g clip-path="url(#clip28_7_2189)">
<rect x="438" y="212" width="225" height="39" rx="4" fill="white"/>
<g clip-path="url(#clip29_7_2189)">
<rect x="447" y="223.7" width="167" height="5.85" rx="2.925" fill="#DDE3E9"/>
<rect x="447" y="233.45" width="112.096" height="5.85" rx="2.925" fill="#DDE3E9"/>
</g>
<path fill-rule="evenodd" clip-rule="evenodd" d="M638.954 238.5C642.82 238.5 645.954 235.366 645.954 231.5C645.954 227.634 642.82 224.5 638.954 224.5C635.088 224.5 631.954 227.634 631.954 231.5C631.954 235.366 635.088 238.5 638.954 238.5Z" fill="#DDE3E9"/>
<path fill-rule="evenodd" clip-rule="evenodd" d="M638.954 234.5C640.611 234.5 641.954 233.157 641.954 231.5C641.954 229.843 640.611 228.5 638.954 228.5C637.297 228.5 635.954 229.843 635.954 231.5C635.954 233.157 637.297 234.5 638.954 234.5Z" fill="#F2F2F2"/>
</g>
<g clip-path="url(#clip30_7_2189)">
<rect x="438" y="259" width="225" height="39" rx="4" fill="white"/>
<g clip-path="url(#clip31_7_2189)">
<rect x="447" y="270.7" width="167" height="5.85" rx="2.925" fill="#DDE3E9"/>
<rect x="447" y="280.45" width="112.096" height="5.85" rx="2.925" fill="#DDE3E9"/>
</g>
<path fill-rule="evenodd" clip-rule="evenodd" d="M638.954 285.5C642.82 285.5 645.954 282.366 645.954 278.5C645.954 274.634 642.82 271.5 638.954 271.5C635.088 271.5 631.954 274.634 631.954 278.5C631.954 282.366 635.088 285.5 638.954 285.5Z" fill="#DDE3E9"/>
<path fill-rule="evenodd" clip-rule="evenodd" d="M638.954 281.5C640.611 281.5 641.954 280.157 641.954 278.5C641.954 276.843 640.611 275.5 638.954 275.5C637.297 275.5 635.954 276.843 635.954 278.5C635.954 280.157 637.297 281.5 638.954 281.5Z" fill="#AFB9C5"/>
</g>
<g clip-path="url(#clip32_7_2189)">
<rect x="438" y="400" width="225" height="39" rx="4" fill="white"/>
<g clip-path="url(#clip33_7_2189)">
<rect x="447" y="411.7" width="167" height="5.85" rx="2.925" fill="#DDE3E9"/>
<rect x="447" y="421.45" width="112.096" height="5.85" rx="2.925" fill="#DDE3E9"/>
</g>
<path fill-rule="evenodd" clip-rule="evenodd" d="M638.954 426.5C642.82 426.5 645.954 423.366 645.954 419.5C645.954 415.634 642.82 412.5 638.954 412.5C635.088 412.5 631.954 415.634 631.954 419.5C631.954 423.366 635.088 426.5 638.954 426.5Z" fill="#DDE3E9"/>
<path fill-rule="evenodd" clip-rule="evenodd" d="M638.954 422.5C640.611 422.5 641.954 421.157 641.954 419.5C641.954 417.843 640.611 416.5 638.954 416.5C637.297 416.5 635.954 417.843 635.954 419.5C635.954 421.157 637.297 422.5 638.954 422.5Z" fill="#F2F2F2"/>
</g>
<g clip-path="url(#clip34_7_2189)">
<rect x="438" y="353" width="225" height="39" rx="4" fill="white"/>
<g clip-path="url(#clip35_7_2189)">
<rect x="447" y="364.7" width="167" height="5.85" rx="2.925" fill="#DDE3E9"/>
<rect x="447" y="374.45" width="112.096" height="5.85" rx="2.925" fill="#DDE3E9"/>
</g>
<path fill-rule="evenodd" clip-rule="evenodd" d="M638.954 379.5C642.82 379.5 645.954 376.366 645.954 372.5C645.954 368.634 642.82 365.5 638.954 365.5C635.088 365.5 631.954 368.634 631.954 372.5C631.954 376.366 635.088 379.5 638.954 379.5Z" fill="#DDE3E9"/>
<path fill-rule="evenodd" clip-rule="evenodd" d="M638.954 375.5C640.611 375.5 641.954 374.157 641.954 372.5C641.954 370.843 640.611 369.5 638.954 369.5C637.297 369.5 635.954 370.843 635.954 372.5C635.954 374.157 637.297 375.5 638.954 375.5Z" fill="#F2F2F2"/>
</g>
<g clip-path="url(#clip36_7_2189)">
<rect x="438" y="306" width="225" height="39" rx="4" fill="white"/>
<g clip-path="url(#clip37_7_2189)">
<rect x="447" y="317.7" width="167" height="5.85" rx="2.925" fill="#DDE3E9"/>
<rect x="447" y="327.45" width="112.096" height="5.85" rx="2.925" fill="#DDE3E9"/>
</g>
<path fill-rule="evenodd" clip-rule="evenodd" d="M638.954 332.5C642.82 332.5 645.954 329.366 645.954 325.5C645.954 321.634 642.82 318.5 638.954 318.5C635.088 318.5 631.954 321.634 631.954 325.5C631.954 329.366 635.088 332.5 638.954 332.5Z" fill="#DDE3E9"/>
<path fill-rule="evenodd" clip-rule="evenodd" d="M638.954 328.5C640.611 328.5 641.954 327.157 641.954 325.5C641.954 323.843 640.611 322.5 638.954 322.5C637.297 322.5 635.954 323.843 635.954 325.5C635.954 327.157 637.297 328.5 638.954 328.5Z" fill="#F2F2F2"/>
</g>
</g>
</g>
<path fill-rule="evenodd" clip-rule="evenodd" d="M839.986 283.376C836.041 280.701 830.796 280 826.076 280C807.64 280 790.311 286.84 775.341 297.032C767.138 302.616 759.8 309.728 753.322 317.132C749.582 321.407 746.248 326.03 743.887 331.173C742.294 334.644 741.201 338.261 740.46 341.991C739.557 346.537 738.839 351.175 738.515 355.797C738.387 357.617 737.33 367.274 740.356 367.438C740.338 367.676 740.334 367.903 740.353 368.106C733.782 378.38 729.723 390.42 725.958 401.835C722.683 411.769 719.764 421.786 717.87 432.063C715.375 445.592 713.737 459.326 712.958 473.05C712.791 475.999 712.676 478.95 712.577 481.903C712.493 484.422 712.408 486.941 712.325 489.461C712.233 492.284 711.736 495.534 712.185 498.34C712.576 500.784 714.691 500.414 714.785 497.982C714.898 495.045 714.879 492.102 715.008 489.163C715.179 485.262 715.355 481.361 715.546 477.461C716.875 450.369 721.86 423.675 731.061 398.084C734.785 387.728 739.051 377.925 744.535 368.345C749.356 359.922 755.156 351.767 761.084 344.173C766.845 336.792 772.836 329.583 779.895 323.33C785.624 318.256 791.926 313.835 798.404 309.722C806.631 304.498 814.843 299.401 823.755 295.391C828.388 293.307 833.108 291.441 837.777 289.44C838.617 289.081 839.517 288.732 840.325 288.315C843.02 286.925 842.133 284.832 839.986 283.376" fill="#C1DEE2"/>
<path fill-rule="evenodd" clip-rule="evenodd" d="M765.818 378C773.295 378 779.949 378.972 786.838 381.943C792.785 384.508 798.205 387.903 803.467 391.599C810.868 396.798 816.698 402.848 820.779 410.865C823.217 415.654 825.006 422.431 823.368 427.655C821.44 433.807 816.144 438.939 809.169 437.855C804.856 437.185 800.903 434.33 797.625 431.643C793.703 428.428 790.564 424.563 787.972 420.27C783.744 413.267 781.26 405.351 777.668 398.033C775.964 394.56 774.317 391.063 772.275 387.762C771.265 386.128 770.189 384.509 768.656 383.294C767.836 382.644 764.378 381.52 765.7 380.061C746.31 380.315 729.132 395.207 725.409 413.641C725.063 415.359 724.792 417.091 724.505 418.82C724.325 419.911 724.398 423.937 723.422 424.634C721.27 426.172 722.174 421.499 722.267 420.826C722.506 419.087 722.76 417.35 723.027 415.615C724.481 406.181 728.681 397.411 735.685 390.683C743.694 382.99 754.501 378 765.818 378" fill="#89C5CC"/>
<path fill-rule="evenodd" clip-rule="evenodd" d="M74.9379 456.736C93.6043 488.052 115.345 518.374 128.401 552.613C127.875 548.577 127.317 544.545 126.692 540.52C123.38 519.179 119.262 497.994 114.936 476.835C112.733 466.062 110.402 455.327 108.012 444.594C106.727 438.829 105.457 433.061 104.145 427.302C103.827 425.906 103.554 423.469 103.157 421C115.845 462.637 128.081 504.305 137.031 546.942C138.205 552.538 139.205 558.124 140.024 563.7C140.304 562.428 140.58 561.156 140.881 559.887C144.503 544.68 149.935 529.594 156.403 515.374C159.495 508.575 163.046 501.924 167.228 495.726C169.836 491.863 175.986 487.271 178.364 483.314C165.355 507.176 160.657 537.032 153.145 562.973C151.312 569.304 149.467 575.624 147.659 581.955C158.987 559.237 176.563 540.571 201 532.483C171.42 552.027 153.678 586.254 141.722 621.26C141.683 621.675 141.636 622.09 141.595 622.506C145.114 615.829 149.545 609.789 155.551 605.56C168.407 596.504 182.667 599.142 195.137 606.91C185.35 600.689 167.663 606.354 159.428 612.677C153.533 617.203 148.495 623.275 144.12 629.2C143.072 630.62 141.641 632.277 140.13 634.044C138.012 647.795 134.56 661.452 129.672 675C130.479 671.111 129.896 664.892 130.12 661.993C130.144 661.679 130.164 661.365 130.188 661.053C129.445 664.019 128.727 666.951 128.036 669.837C129.41 664.331 130.156 658.583 130.739 652.776C130.889 650.281 131.036 647.785 131.19 645.29C131.141 640.553 130.946 635.799 130.616 631.036C129.447 626.408 128.137 622.042 127.056 618.411C123.159 605.31 117.444 592.76 110.411 581.051C103.994 570.366 96.3124 560.688 87.4448 551.935C82.6643 547.217 77.6614 542.725 72.7289 538.17C70.9453 536.523 67.7572 532.474 65 530.363C85.0805 541.434 105.749 553.41 120.398 571.248C118.68 564.653 116.815 558.151 114.842 551.78C104.831 519.454 92.1913 485.953 74.9379 456.736Z" fill="#DDE3E9"/>
<path fill-rule="evenodd" clip-rule="evenodd" d="M95 634C95 669.899 97.8428 699 136 699C174.157 699 177 669.899 177 634" fill="#C5CFD6"/>
<rect x="672" y="70" width="6" height="25" rx="3" fill="#DDE3E9"/>
<rect x="686" y="54" width="6" height="41" rx="3" fill="#DDE3E9"/>
<rect x="700" y="46" width="6" height="49" rx="3" fill="#DDE3E9"/>
<rect x="714" y="54" width="6" height="41" rx="3" fill="#DDE3E9"/>
<rect x="728" y="38" width="6" height="57" rx="3" fill="#C5CFD6"/>
<path fill-rule="evenodd" clip-rule="evenodd" d="M180 344.256C180 333.117 189.002 324 200 324V344.256L186.332 359C182.444 355.395 180 350.107 180 344.256Z" fill="#F2F2F2"/>
<path fill-rule="evenodd" clip-rule="evenodd" d="M199.471 344H219.668C219.668 349.221 217.538 354.113 214.171 357.668C210.468 361.556 205.195 364 199.471 364C194.198 364 189.372 361.891 185.668 358.557L199.471 344Z" fill="#AFB9C5"/>
<path fill-rule="evenodd" clip-rule="evenodd" d="M220 344C220 333.002 210.998 324 200 324V344H220ZM190 324L198 342L180 334C181.78 329.334 185.777 325.78 190 324Z" fill="#C5CFD6"/>
<path fill-rule="evenodd" clip-rule="evenodd" d="M830.766 353.179C828.845 355.219 826.123 356.5 823.095 356.5C817.278 356.5 812.562 351.799 812.562 346C812.562 340.201 817.278 335.5 823.095 335.5V316C806.546 316 793 329.503 793 346C793 362.497 806.546 376 823.095 376C831.788 376 839.645 372.334 845 366.502L830.766 353.179Z" fill="#F2F2F2"/>
<path fill-rule="evenodd" clip-rule="evenodd" d="M823 316V335.5C828.799 335.5 833.5 340.201 833.5 346H853C853 329.503 839.497 316 823 316Z" fill="#AFB9C5"/>
<path fill-rule="evenodd" clip-rule="evenodd" d="M833.097 346C833.097 349.407 831.492 352.435 829 354.391L841.262 370C848.399 364.412 853 355.749 853 346H833.097Z" fill="#C5CFD6"/>
<path fill-rule="evenodd" clip-rule="evenodd" d="M640.051 77.5039C638.573 79.0679 636.479 80.05 634.15 80.05C629.675 80.05 626.048 76.4459 626.048 72C626.048 67.5541 629.675 63.95 634.15 63.95V49C621.42 49 611 59.3523 611 72C611 84.6477 621.42 95 634.15 95C640.837 95 646.88 92.1894 651 87.7182L640.051 77.5039Z" fill="#F2F2F2"/>
<path fill-rule="evenodd" clip-rule="evenodd" d="M634 49V63.95C638.446 63.95 642.05 67.5541 642.05 72H657C657 59.3523 646.648 49 634 49Z" fill="#AFB9C5"/>
<path fill-rule="evenodd" clip-rule="evenodd" d="M642.073 72C642.073 74.5552 640.869 76.8266 639 78.2931L648.196 90C653.55 85.8088 657 79.312 657 72H642.073Z" fill="#C5CFD6"/>
<path fill-rule="evenodd" clip-rule="evenodd" d="M276.007 94.9863C276.003 94.9963 275.999 95.0063 275.993 95.0183C275.999 95.0083 276.007 94.9683 276.007 94.9863" fill="#C5CFD6"/>
<path fill-rule="evenodd" clip-rule="evenodd" d="M275.998 95.0015C275.998 95.0035 275.996 95.0075 275.996 95.0115C275.996 95.0015 276.014 94.9715 275.998 95.0015" fill="#C5CFD6"/>
<path fill-rule="evenodd" clip-rule="evenodd" d="M276.067 94.8323C276.053 94.8723 276.035 94.9103 276.019 94.9503C276.027 94.9303 276.035 94.9143 276.043 94.8943C275.835 95.4143 275.967 95.0763 276.067 94.8323" fill="#C5CFD6"/>
<path fill-rule="evenodd" clip-rule="evenodd" d="M276.022 94.9528C276.014 94.9708 276.006 94.9907 275.998 95.0087C275.94 95.1207 276.022 94.9528 276.022 94.9528" fill="#C5CFD6"/>
<path fill-rule="evenodd" clip-rule="evenodd" d="M275.999 95.002C275.999 95 275.999 95 276.001 94.998C275.999 95 275.999 95 275.999 95.002" fill="#C5CFD6"/>
<path fill-rule="evenodd" clip-rule="evenodd" d="M275.99 95.0164C275.978 95.0404 276.046 94.9244 275.99 95.0164Z" fill="#C5CFD6"/>
<path fill-rule="evenodd" clip-rule="evenodd" d="M275.998 95.002L276.002 94.998C276 95 276 95.002 275.998 95.002" fill="#C5CFD6"/>
<rect x="228" y="43" width="95" height="63" rx="4" fill="#DDE3E9"/>
<path fill-rule="evenodd" clip-rule="evenodd" d="M264 61L236 106H292L264 61Z" fill="#AFB9C5"/>
<path fill-rule="evenodd" clip-rule="evenodd" d="M291.5 73L267 106H316L291.5 73Z" fill="#C5CFD6"/>
<path fill-rule="evenodd" clip-rule="evenodd" d="M302 73C306.971 73 311 68.9706 311 64C311 59.0294 306.971 55 302 55C297.029 55 293 59.0294 293 64C293 68.9706 297.029 73 302 73Z" fill="white"/>
<path fill-rule="evenodd" clip-rule="evenodd" d="M752.993 521.986C752.997 521.996 753.001 522.006 753.007 522.018C753.001 522.008 752.993 521.968 752.993 521.986" fill="#C5CFD6"/>
<path fill-rule="evenodd" clip-rule="evenodd" d="M753.002 522.001C753.002 522.003 753.004 522.007 753.004 522.011C753.004 522.001 752.986 521.971 753.002 522.001" fill="#C5CFD6"/>
<path fill-rule="evenodd" clip-rule="evenodd" d="M752.933 521.832C752.947 521.872 752.965 521.91 752.981 521.95C752.973 521.93 752.965 521.914 752.957 521.894C753.165 522.414 753.033 522.076 752.933 521.832" fill="#C5CFD6"/>
<path fill-rule="evenodd" clip-rule="evenodd" d="M752.978 521.953C752.986 521.971 752.994 521.991 753.002 522.009C753.06 522.121 752.978 521.953 752.978 521.953" fill="#C5CFD6"/>
<path fill-rule="evenodd" clip-rule="evenodd" d="M753.001 522.002C753.001 522 753.001 522 752.999 521.998C753.001 522 753.001 522 753.001 522.002" fill="#C5CFD6"/>
<path fill-rule="evenodd" clip-rule="evenodd" d="M753.01 522.016C753.022 522.04 752.954 521.924 753.01 522.016Z" fill="#C5CFD6"/>
<path fill-rule="evenodd" clip-rule="evenodd" d="M753.002 522.002L752.998 521.998C753 522 753 522.002 753.002 522.002" fill="#C5CFD6"/>
<rect width="142" height="94" rx="4" transform="matrix(-1 0 0 1 824 445)" fill="#DDE3E9"/>
<path fill-rule="evenodd" clip-rule="evenodd" d="M771.274 472L812.329 539H730.219L771.274 472Z" fill="#AFB9C5"/>
<path fill-rule="evenodd" clip-rule="evenodd" d="M728.944 489.946L765.239 539H692.649L728.944 489.946Z" fill="#C5CFD6"/>
<path fill-rule="evenodd" clip-rule="evenodd" d="M713.5 490C706.044 490 700 483.956 700 476.5C700 469.044 706.044 463 713.5 463C720.956 463 727 469.044 727 476.5C727 483.956 720.956 490 713.5 490Z" fill="white"/>
<path d="M316.748 319.809C328.622 319.809 338.248 329.435 338.248 341.309V343.889C342.524 360.329 347.774 394.665 342.158 400.158H305.787C305.786 400.149 305.786 400.14 305.786 400.131H303.311C291.437 400.131 281.811 390.505 281.811 378.631V341.309C281.811 329.435 291.437 319.809 303.311 319.809H316.748Z" fill="black"/>
<path d="M286.899 343.687C288.782 316.828 326.144 322.736 333.412 336.292C340.679 349.848 339.815 384.233 330.422 386.656C326.676 387.622 318.697 385.253 310.575 380.354L315.673 416.446H285.574L295.936 368.111C290.158 361.324 286.245 353.007 286.899 343.687Z" fill="#D4A181"/>
<path d="M309.405 321.064C323.927 321.064 328.512 327.827 332.415 333.568C329.496 343.59 318.169 345.076 308.105 351.324C306.919 350.359 305.406 349.78 303.758 349.78C299.949 349.78 296.861 352.87 296.861 356.682C296.861 360.494 299.949 363.584 303.758 363.584C303.862 363.584 303.966 363.581 304.069 363.577C305.456 378.484 304.904 395.509 300.771 399.55H264.4C262.373 364.317 281.958 377.96 281.958 344.788C283.179 343.594 284.333 342.414 285.474 341.395L285.434 340.417C285.434 340.417 294.882 321.064 309.405 321.064Z" fill="black"/>
<path d="M359.872 574.58C368.708 574.58 375.873 581.743 375.873 590.58V714.203C375.873 723.039 368.709 730.203 359.873 730.204H207.512C198.676 730.204 191.512 723.039 191.512 714.203V590.58C191.512 581.743 198.676 574.58 207.512 574.58H359.872ZM230.628 609.72C228.419 609.72 226.629 611.511 226.628 613.72V691.062C226.628 693.271 228.419 695.062 230.628 695.062H336.756C338.965 695.062 340.756 693.271 340.756 691.062V613.72C340.756 611.511 338.965 609.72 336.756 609.72H230.628Z" fill="#C5CFD6"/>
<path fill-rule="evenodd" clip-rule="evenodd" d="M500.232 723.928C475.506 693.712 458.775 671.311 450.041 656.726C435.085 631.752 422.844 609.53 418.981 601.041C409.77 580.798 440.187 571.32 447.072 580.762C457.491 595.052 479.744 640.02 513.829 715.667L500.232 723.928Z" fill="#D4A181"/>
<path fill-rule="evenodd" clip-rule="evenodd" d="M449.563 715.143L403.545 599.224C393.703 578.093 441.233 564.203 448.467 574.037C464.888 596.363 503.92 684.437 508.812 691.089L449.563 715.143Z" fill="#2F3676"/>
<path fill-rule="evenodd" clip-rule="evenodd" d="M327.002 691.896C335.966 678.811 368.571 634.789 386.33 616.574C391.434 611.34 396.413 606.316 401.123 601.635C415.122 587.72 442.999 611.108 429.026 623.783C394.227 655.347 343.454 697.958 339.212 701.757C333.266 707.082 321.368 700.119 327.002 691.896Z" fill="#D4A181"/>
<path fill-rule="evenodd" clip-rule="evenodd" d="M332.486 686.063C331.803 685.111 330.462 684.886 329.561 685.633C327.518 687.329 324.212 690.241 323.072 692.218C321.376 695.158 319.1 701.364 319.1 701.364C322.508 703.333 380.36 736.757 380.36 736.757C380.36 736.757 387.305 730.237 382.524 726.635C377.743 723.032 374.633 720.559 374.633 720.559L353.335 691.194C353.004 690.738 352.362 690.645 351.916 690.989L347.315 694.534C347.315 694.534 341.269 694.006 338.292 692.286C336.339 691.158 333.919 688.061 332.486 686.063Z" fill="#E4E4E4"/>
<path fill-rule="evenodd" clip-rule="evenodd" d="M492.569 717.785C491.502 717.303 490.227 717.778 489.821 718.876C488.899 721.368 487.491 725.543 487.491 727.826C487.491 731.22 488.622 737.733 488.622 737.733C492.557 737.733 559.358 737.733 559.358 737.733C559.358 737.733 562.115 728.611 556.174 727.884C550.234 727.157 546.305 726.571 546.305 726.571L513.189 711.797C512.674 711.567 512.071 711.808 511.857 712.329L509.644 717.701C509.644 717.701 504.144 720.269 500.706 720.269C498.451 720.269 494.809 718.798 492.569 717.785Z" fill="#E4E4E4"/>
<path fill-rule="evenodd" clip-rule="evenodd" d="M386.987 605.014C386.987 605.014 329.615 595.661 310.13 592.223C273.104 585.69 262.307 565.751 268.691 522.248L336.911 522.248C350.453 526.161 450.077 570.654 450.077 570.654C462.027 576.59 459.801 594.092 457.617 599.859C457.483 600.211 397.183 703.487 397.183 703.487L341.376 667.911L387.091 609.206C387.091 609.206 388.902 605.556 386.987 605.014Z" fill="#5C63AB"/>
<path d="M262.002 505.681C262.002 505.681 237.729 584.093 235.794 588.894C232.892 596.091 239.033 607.052 241.659 612.943C233.106 616.773 234.017 602.588 223.228 607.612C213.379 612.197 205.887 620.504 194.509 613.479C193.11 612.615 191.576 609.362 195.28 606.821C204.508 600.489 217.805 589.408 219.603 585.76C223.274 578.307 235.767 505.732 235.794 505.578L262.002 505.681ZM429.014 535.369C439.351 539.782 447.82 544.655 454.423 549.987C455.908 551.779 457.524 555.213 450.538 553.676C443.552 552.139 436.135 550.837 434.822 553.111C433.509 555.384 437.378 558.868 434.951 561.843C433.333 563.827 427.893 557.518 418.63 542.915L381.687 521.118L393.486 500.687L429.014 535.369Z" fill="#D4A181"/>
<path fill-rule="evenodd" clip-rule="evenodd" d="M310.274 395.527L321.119 393.666C339.79 440.341 372.388 482.751 418.913 520.896L383.756 563.638C337.237 509.324 308.563 453.287 310.274 395.527Z" fill="#191847"/>
<path fill-rule="evenodd" clip-rule="evenodd" d="M262.999 531.909H359.568C359.568 531.909 326.009 450.254 326.009 393.179L296.879 388.835C273.985 425.681 267.52 471.046 262.999 531.909Z" fill="#DDE3E9"/>
<path d="M298.175 388.835C301.576 388.953 308.523 389.257 308.571 389.259L315.61 409.389C316.727 446.204 328.655 557.77 328.655 557.77H265.446C265.554 562.885 265.79 568.073 266.173 573.325H219.104C229.654 454.206 296.111 388.96 296.238 388.835L296.262 388.856C296.266 388.849 296.27 388.842 296.273 388.835H298.175Z" fill="#2F3676"/>
<path d="M270.22 496.145C271.943 518.605 275.544 545.63 283.065 558.264H265.458C264.953 535.988 266.926 515.073 270.22 496.145Z" fill="black" fill-opacity="0.1"/>
<path fill-rule="evenodd" clip-rule="evenodd" d="M279.442 519.359L310.657 504.837V519.359H279.442Z" fill="white" fill-opacity="0.2"/>
<path d="M687.803 264.463C685.917 237.584 648.501 243.498 641.222 257.064C633.944 270.63 634.809 305.042 644.215 307.466C647.967 308.433 655.958 306.062 664.092 301.159L658.986 337.28H689.13L678.753 288.908C684.54 282.115 688.458 273.791 687.803 264.463Z" fill="#D4A181"/>
<path d="M671.914 244.916C666.99 242.856 661.879 242.624 657.564 243.858C649.107 244.584 641.554 247.163 639.413 248.694C639.413 256.702 640.966 259.078 654.218 258.868C657.474 260.588 659.977 263.55 662.584 267.433C662.56 267.768 660.802 291.541 653.428 291.542C646.001 291.542 639.7 286.827 636.441 286.827C634.066 286.827 634.596 289.8 636.171 292.004C637.47 293.822 643.795 295.575 643.796 298.394C643.796 301.213 638.798 299.032 638.798 300.704C638.798 303.47 637.92 308.669 642.72 308.669C647.578 308.669 661.505 306.899 663.892 299.689C665.916 293.575 666.686 275.972 666.873 270.767C667.17 270.731 667.472 270.711 667.778 270.711C671.94 270.711 675.314 274.085 675.314 278.247C675.314 280.36 674.445 282.27 673.044 283.639C674.788 286.1 676.742 288.671 678.981 291.324C687.394 286.277 693.637 271.501 685.412 257.308C683.139 250.354 677.992 246.641 671.914 244.916Z" fill="black"/>
<path fill-rule="evenodd" clip-rule="evenodd" d="M709.186 443.343L648.884 603.215L606.617 721.05H582.516L640.617 443.343L709.186 443.343Z" fill="#5C63AB"/>
<path fill-rule="evenodd" clip-rule="evenodd" d="M724.089 443.343C724.745 498.199 724.271 572.053 725.798 575.472C727.326 578.891 820.805 653.392 820.805 653.392L808.383 674.556C808.383 674.556 697.401 602.847 691.727 593.293C686.053 583.739 657.547 495.822 642.716 443.343H724.089Z" fill="#8991DC"/>
<path fill-rule="evenodd" clip-rule="evenodd" d="M842.66 667.634L821.678 651.634L804.749 671.849C802.796 694.708 789.642 723.122 789.642 723.122L793.485 726.353L824.118 689.774L832.677 675.645L834.598 677.26L842.66 667.634Z" fill="#191847"/>
<path fill-rule="evenodd" clip-rule="evenodd" d="M608.854 743.669L607.6 717.28L581.263 717.28C562.53 730.474 532.351 738.642 532.351 738.642V743.669H580.009L596.313 741.156V743.669H608.854Z" fill="#191847"/>
<path d="M728.103 420.437C728.103 420.437 763.078 494.628 765.664 499.105C769.543 505.82 764.976 517.52 763.191 523.713C772.206 526.31 769.33 512.405 780.729 515.87C791.133 519.033 799.719 526.208 810.026 517.671C811.294 516.622 812.361 513.191 808.335 511.193C798.303 506.216 783.575 497.106 781.285 493.748C776.606 486.884 754.112 416.78 754.08 416.683L728.103 420.437ZM566.022 471.746C555.669 476.156 547.184 481.025 540.571 486.354C539.084 488.145 537.465 491.577 544.461 490.04C551.457 488.503 558.885 487.2 560.2 489.471C561.514 491.742 557.639 495.223 560.068 498.195C561.687 500.176 567.138 493.872 576.418 479.281L613.421 457.497L601.609 437.087L566.022 471.746Z" fill="#D4A181"/>
<path fill-rule="evenodd" clip-rule="evenodd" d="M664.915 318.193L653.901 317.863C618.832 357.882 611.733 426.292 567.741 468.186L581.561 481.099C664.943 458.685 674.643 375.095 664.915 318.193Z" fill="#0A12A1"/>
<path fill-rule="evenodd" clip-rule="evenodd" d="M730.761 446.522C730.761 446.522 666.074 455.614 635.597 459.897C631.248 460.508 631.187 454.125 631.371 450.874C633.496 413.352 656.286 370.023 648.983 318.063L675.829 309.908C703.656 343.168 717.815 386.942 730.761 446.522Z" fill="#DDE3E9"/>
<path d="M714.776 300.9C703.594 299.137 694.979 307.217 677.896 309.618C677.158 309.722 676.492 309.866 675.894 310.045L666.843 311.848C666.843 311.848 647.445 442.159 669.907 481.663L745.13 471.091C750.848 480.743 756.296 489.102 761.213 495.419L781.622 492.55C773.857 421.37 739.313 370.615 712.197 340.896C717.142 339.838 721.358 337.119 723.486 331.585C730.98 312.104 725.957 302.664 714.776 300.9Z" fill="#243AE2"/>
<path d="M721.844 428.093C722.293 446.242 721.382 464.662 717.012 475.043L745.129 471.091C737.627 458.426 729.662 443.533 721.844 428.093Z" fill="black" fill-opacity="0.1"/>
</g>
<defs>
<clipPath id="clip0_7_2189">
<rect width="1028" height="778" fill="white"/>
</clipPath>
<clipPath id="clip1_7_2189">
<rect width="934.851" height="304.279" fill="white" transform="translate(55.0742 349.521)"/>
</clipPath>
<clipPath id="clip2_7_2189">
<rect width="159" height="302" fill="white" transform="translate(290 62)"/>
</clipPath>
<clipPath id="clip3_7_2189">
<rect width="131" height="204" fill="white" transform="translate(304 90)"/>
</clipPath>
<clipPath id="clip4_7_2189">
<rect width="131" height="54" fill="white" transform="translate(304 90)"/>
</clipPath>
<clipPath id="clip5_7_2189">
<rect width="73" height="21.6" fill="white" transform="translate(343 106.2)"/>
</clipPath>
<clipPath id="clip6_7_2189">
<rect width="131" height="42" fill="white" transform="translate(304 152)"/>
</clipPath>
<clipPath id="clip7_7_2189">
<rect width="73" height="16.8" fill="white" transform="translate(343 164.6)"/>
</clipPath>
<clipPath id="clip8_7_2189">
<rect width="131" height="42" fill="white" transform="translate(304 202)"/>
</clipPath>
<clipPath id="clip9_7_2189">
<rect width="73" height="16.8" fill="white" transform="translate(343 214.6)"/>
</clipPath>
<clipPath id="clip10_7_2189">
<rect width="131" height="42" fill="white" transform="translate(304 252)"/>
</clipPath>
<clipPath id="clip11_7_2189">
<rect width="73" height="16.8" fill="white" transform="translate(343 264.6)"/>
</clipPath>
<clipPath id="clip12_7_2189">
<rect width="207" height="302" fill="white" transform="translate(308 88)"/>
</clipPath>
<clipPath id="clip13_7_2189">
<rect width="131" height="204" fill="white" transform="translate(370 116)"/>
</clipPath>
<clipPath id="clip14_7_2189">
<rect width="131" height="54" fill="white" transform="translate(370 116)"/>
</clipPath>
<clipPath id="clip15_7_2189">
<rect width="73" height="21.6" fill="white" transform="translate(379 132.2)"/>
</clipPath>
<clipPath id="clip16_7_2189">
<rect width="131" height="42" fill="white" transform="translate(370 178)"/>
</clipPath>
<clipPath id="clip17_7_2189">
<rect width="73" height="16.8" fill="white" transform="translate(409 190.6)"/>
</clipPath>
<clipPath id="clip18_7_2189">
<rect width="131" height="42" fill="white" transform="translate(370 228)"/>
</clipPath>
<clipPath id="clip19_7_2189">
<rect width="73" height="16.8" fill="white" transform="translate(379 240.6)"/>
</clipPath>
<clipPath id="clip20_7_2189">
<rect width="131" height="42" fill="white" transform="translate(370 278)"/>
</clipPath>
<clipPath id="clip21_7_2189">
<rect width="73" height="16.8" fill="white" transform="translate(409 290.6)"/>
</clipPath>
<clipPath id="clip22_7_2189">
<rect width="335" height="346" fill="white" transform="translate(422 113)"/>
</clipPath>
<clipPath id="clip23_7_2189">
<rect width="70" height="194" fill="white" transform="translate(671 245)"/>
</clipPath>
<clipPath id="clip24_7_2189">
<rect width="34" height="158" fill="white" transform="translate(689 263)"/>
</clipPath>
<clipPath id="clip25_7_2189">
<rect width="225" height="282" fill="white" transform="translate(438 157)"/>
</clipPath>
<clipPath id="clip26_7_2189">
<rect width="225" height="47" fill="white" transform="translate(438 157)"/>
</clipPath>
<clipPath id="clip27_7_2189">
<rect width="167" height="18.8" fill="white" transform="translate(447 171.1)"/>
</clipPath>
<clipPath id="clip28_7_2189">
<rect width="225" height="39" fill="white" transform="translate(438 212)"/>
</clipPath>
<clipPath id="clip29_7_2189">
<rect width="167" height="15.6" fill="white" transform="translate(447 223.7)"/>
</clipPath>
<clipPath id="clip30_7_2189">
<rect width="225" height="39" fill="white" transform="translate(438 259)"/>
</clipPath>
<clipPath id="clip31_7_2189">
<rect width="167" height="15.6" fill="white" transform="translate(447 270.7)"/>
</clipPath>
<clipPath id="clip32_7_2189">
<rect width="225" height="39" fill="white" transform="translate(438 400)"/>
</clipPath>
<clipPath id="clip33_7_2189">
<rect width="167" height="15.6" fill="white" transform="translate(447 411.7)"/>
</clipPath>
<clipPath id="clip34_7_2189">
<rect width="225" height="39" fill="white" transform="translate(438 353)"/>
</clipPath>
<clipPath id="clip35_7_2189">
<rect width="167" height="15.6" fill="white" transform="translate(447 364.7)"/>
</clipPath>
<clipPath id="clip36_7_2189">
<rect width="225" height="39" fill="white" transform="translate(438 306)"/>
</clipPath>
<clipPath id="clip37_7_2189">
<rect width="167" height="15.6" fill="white" transform="translate(447 317.7)"/>
</clipPath>
</defs>
</svg>
